<svg width="545" height="238" viewBox="0 0 545 238" fill="none" xmlns="http://www.w3.org/2000/svg">
<path d="M15.6801 146.13C15.6801 140.93 14.4701 136.69 12.0401 133.41C9.6101 130.13 5.71009 128.49 0.340088 128.49V110.21C5.71009 110.21 9.6101 108.57 12.0401 105.29C14.4701 102.01 15.6801 97.77 15.6801 92.57C15.6801 88.57 15.4001 84.5801 14.8501 80.6201C14.3001 76.6601 13.6601 72.67 12.9301 68.67C12.2001 64.67 11.5701 60.6401 11.0101 56.5901C10.4601 52.5401 10.1801 48.4301 10.1801 44.2501C10.1801 37.7701 11.1201 31.87 12.9901 26.55C14.8601 21.22 17.7401 16.6401 21.6201 12.8101C25.5001 8.98006 30.4001 6.02005 36.3201 3.93005C42.2401 1.84005 49.2101 0.800049 57.2201 0.800049H64.0001V14.86C64.0001 15.97 63.7601 16.9301 63.3001 17.7401C62.8301 18.5501 62.2301 19.21 61.5101 19.72C60.7801 20.23 60.0401 20.6201 59.2701 20.8701C58.5001 21.1201 57.8201 21.2501 57.2201 21.2501H56.0701C50.1001 21.2501 45.5401 23.1301 42.3901 26.8701C39.2401 30.6201 37.6601 35.7801 37.6601 42.3401C37.6601 47.0301 37.9201 51.52 38.4301 55.83C38.9401 60.13 39.4701 64.31 40.0301 68.36C40.5801 72.41 41.1201 76.3901 41.6301 80.3101C42.1401 84.2301 42.4001 88.19 42.4001 92.2C42.4001 95.44 41.9501 98.5101 41.0601 101.4C40.1601 104.3 38.8401 106.92 37.1001 109.26C35.3501 111.61 33.2701 113.67 30.8401 115.46C28.4101 117.25 25.6601 118.57 22.5901 119.42C25.6601 120.36 28.4101 121.7 30.8401 123.45C33.2701 125.2 35.3601 127.27 37.1001 129.65C38.8501 132.04 40.1701 134.68 41.0601 137.58C41.9501 140.48 42.4001 143.5 42.4001 146.66C42.4001 150.67 42.1401 154.63 41.6301 158.55C41.1201 162.47 40.5901 166.46 40.0301 170.5C39.4801 174.55 38.9401 178.73 38.4301 183.03C37.9201 187.33 37.6601 191.83 37.6601 196.52C37.6601 202.99 39.2401 208.11 42.3901 211.86C45.5401 215.61 50.1001 217.48 56.0701 217.48H57.2201C57.8201 217.48 58.5001 217.61 59.2701 217.86C60.0401 218.12 60.7801 218.5 61.5101 219.01C62.2301 219.52 62.8301 220.2 63.3001 221.05C63.7701 221.9 64.0001 222.88 64.0001 223.99V237.92H57.2201C49.2101 237.92 42.2401 236.88 36.3201 234.79C30.4001 232.7 25.5001 229.76 21.6201 225.97C17.7401 222.18 14.8701 217.62 12.9901 212.29C11.1101 206.96 10.1801 201.06 10.1801 194.58C10.1801 190.41 10.4601 186.29 11.0101 182.24C11.5601 178.19 12.2001 174.17 12.9301 170.16C13.6501 166.16 14.2901 162.15 14.8501 158.14C15.4001 154.14 15.6801 150.13 15.6801 146.12V146.13Z" fill="#333333"/>
<path d="M86.6301 13.69H114.37C117.35 13.69 119.78 14.42 121.66 15.86C123.53 17.31 124.94 19.18 125.88 21.48L169.34 134.23C170.79 137.9 172.17 141.92 173.49 146.31C174.81 150.7 176.07 155.32 177.26 160.18C179.22 150.38 181.65 141.73 184.55 134.23L227.88 21.48C228.65 19.52 230.01 17.73 231.97 16.11C233.93 14.49 236.36 13.6801 239.26 13.6801H267L192.35 198.52H161.29L86.6401 13.6801L86.6301 13.69Z" fill="#333333"/>
<path d="M334.62 91.1601H342.67C345.91 91.1601 348.59 90.7101 350.72 89.8201C352.85 88.9201 354.68 87.5001 356.22 85.5401L407.22 20.9801C409.35 18.2501 411.59 16.3601 413.93 15.2901C416.27 14.2301 419.23 13.6901 422.81 13.6901H452.47L390.22 90.5201C388.26 92.9101 386.39 94.9101 384.6 96.5301C382.81 98.1501 380.89 99.4701 378.85 100.49C381.66 101.51 384.2 102.96 386.46 104.84C388.72 106.72 390.91 109.1 393.04 112L457.21 198.54H426.79C422.7 198.54 419.65 197.96 417.65 196.81C415.65 195.66 413.96 193.98 412.6 191.76L360.32 123.5C358.61 121.29 356.7 119.69 354.57 118.71C352.44 117.73 349.41 117.24 345.49 117.24H334.62V198.54H300.23V13.5701H334.62V91.1601Z" fill="#333333"/>
<path d="M529.3 146.13C529.3 150.14 529.58 154.14 530.13 158.15C530.68 162.16 531.32 166.16 532.05 170.17C532.77 174.18 533.41 178.2 533.97 182.25C534.52 186.3 534.8 190.41 534.8 194.59C534.8 201.07 533.86 206.97 531.99 212.3C530.11 217.63 527.24 222.18 523.36 225.98C519.48 229.77 514.58 232.71 508.66 234.8C502.74 236.89 495.77 237.93 487.76 237.93H480.99V224C480.99 222.89 481.22 221.91 481.69 221.06C482.16 220.21 482.75 219.53 483.48 219.02C484.2 218.51 484.95 218.13 485.72 217.87C486.49 217.61 487.17 217.49 487.76 217.49H488.91C494.87 217.49 499.43 215.61 502.59 211.87C505.74 208.12 507.32 203 507.32 196.53C507.32 191.84 507.06 187.35 506.55 183.04C506.04 178.74 505.51 174.56 504.95 170.51C504.4 166.46 503.86 162.48 503.35 158.56C502.84 154.64 502.58 150.68 502.58 146.67C502.58 143.52 503.03 140.49 503.92 137.59C504.81 134.69 506.11 132.05 507.82 129.66C509.52 127.28 511.61 125.21 514.08 123.46C516.55 121.71 519.32 120.37 522.39 119.43C519.32 118.58 516.55 117.26 514.08 115.47C511.61 113.68 509.52 111.62 507.82 109.27C506.11 106.93 504.82 104.31 503.92 101.41C503.03 98.51 502.58 95.4501 502.58 92.2101C502.58 88.2101 502.84 84.24 503.35 80.32C503.86 76.4 504.39 72.4201 504.95 68.3701C505.5 64.3201 506.04 60.1501 506.55 55.8401C507.06 51.5401 507.32 47.04 507.32 42.35C507.32 35.79 505.74 30.63 502.59 26.88C499.44 23.13 494.88 21.26 488.91 21.26H487.76C487.16 21.26 486.48 21.13 485.72 20.88C484.95 20.62 484.21 20.24 483.48 19.73C482.76 19.22 482.16 18.5601 481.69 17.7501C481.22 16.9401 480.99 15.9801 480.99 14.8701V0.810059H487.76C495.77 0.810059 502.74 1.85003 508.66 3.94003C514.58 6.03003 519.48 8.99004 523.36 12.82C527.24 16.65 530.11 21.2401 531.99 26.5601C533.86 31.8901 534.8 37.79 534.8 44.26C534.8 48.44 534.52 52.55 533.97 56.6C533.41 60.65 532.78 64.6801 532.05 68.6801C531.33 72.6901 530.69 76.67 530.13 80.63C529.57 84.59 529.3 88.58 529.3 92.58C529.3 97.78 530.51 102.02 532.94 105.3C535.37 108.58 539.27 110.22 544.64 110.22V128.5C539.27 128.5 535.37 130.14 532.94 133.42C530.51 136.7 529.3 140.94 529.3 146.14V146.13Z" fill="#333333"/>
</svg>
