<svg width="1000" height="1000" viewBox="0 0 1000 1000" fill="none" xmlns="http://www.w3.org/2000/svg">
<g clip-path="url(#clip0_1_104)">
<path d="M1000 0H0V1000H1000V0Z" fill="#1E1E1E"/>
<path d="M915.34 509.48C915.37 507.34 915.4 505.19 915.4 503.04C915.4 276.59 731.83 93.02 505.38 93.02" stroke="white" stroke-width="6" stroke-miterlimit="10"/>
<path d="M505.38 63.92C747.9 63.92 944.5 260.52 944.5 503.04C944.5 505.19 944.48 507.34 944.45 509.48" stroke="white" stroke-width="6" stroke-miterlimit="10"/>
<path d="M506.9 942.15C506.39 942.15 505.89 942.15 505.38 942.15C265.01 942.15 69.7501 749.02 66.3101 509.47" stroke="white" stroke-width="6" stroke-miterlimit="10"/>
<path d="M95.4102 509.48C98.8502 732.96 281.08 913.06 505.37 913.06C505.88 913.06 506.38 913.06 506.89 913.06" stroke="white" stroke-width="6" stroke-miterlimit="10"/>
<path d="M59.24 429.91L64.77 430.64L62.44 448.19L74.63 449.81L76.45 436.13L81.98 436.87L80.16 450.55L98.24 452.95L97.34 459.73L56 454.24L59.23 429.91H59.24Z" fill="white"/>
<path d="M70.1399 381.09L95.5799 388.8C98.5999 389.72 101.12 389.61 103.14 388.49C105.15 387.37 106.59 385.39 107.44 382.55C108.31 379.68 108.22 377.22 107.17 375.16C106.12 373.11 104.08 371.62 101.06 370.71L75.6199 363L77.5999 356.45L102.92 364.12C106.17 365.11 108.72 366.65 110.55 368.75C112.38 370.85 113.49 373.26 113.88 375.97C114.27 378.68 114.03 381.47 113.16 384.34C112.29 387.21 110.94 389.66 109.12 391.67C107.3 393.69 105.05 395.05 102.37 395.74C99.6899 396.43 96.7299 396.29 93.4699 395.3L68.1499 387.63L70.1299 381.08L70.1399 381.09Z" fill="white"/>
<path d="M130.33 323.79L136.49 311.11L141.46 313.52L132.32 332.36L94.8101 314.15L97.8001 308L130.35 323.8L130.33 323.79Z" fill="white"/>
<path d="M158.86 273.6L166.72 261.89L171.3 264.97L159.62 282.35L125 259.1L128.81 253.42L158.84 273.59L158.86 273.6Z" fill="white"/>
<path d="M196.88 231.34C194.64 232.33 192.43 232.69 190.24 232.42C188.05 232.15 186.07 231.2 184.3 229.58L189.24 224.18C190.67 225.28 192.25 225.75 193.95 225.61C195.66 225.47 197.28 224.55 198.82 222.87C200.41 221.13 201.24 219.39 201.29 217.64C201.34 215.9 200.7 214.42 199.37 213.2C198.34 212.25 197.22 211.79 196.02 211.8C194.82 211.81 193.63 212.1 192.45 212.68C191.27 213.26 189.75 214.15 187.88 215.36C185.51 216.88 183.48 218.02 181.79 218.77C180.1 219.52 178.27 219.82 176.31 219.65C174.35 219.48 172.41 218.52 170.49 216.76C168.72 215.14 167.58 213.28 167.06 211.18C166.54 209.08 166.66 206.91 167.41 204.67C168.16 202.43 169.49 200.26 171.41 198.17C174.14 195.19 177.12 193.43 180.35 192.89C183.58 192.35 186.59 193.17 189.37 195.34L184.26 200.91C183.06 199.97 181.61 199.62 179.93 199.87C178.24 200.11 176.67 201.03 175.21 202.62C173.89 204.07 173.17 205.58 173.07 207.17C172.97 208.76 173.61 210.19 175 211.46C175.94 212.33 176.98 212.75 178.11 212.73C179.24 212.71 180.39 212.42 181.55 211.86C182.71 211.3 184.21 210.44 186.02 209.29C188.44 207.77 190.52 206.62 192.26 205.85C194 205.08 195.86 204.78 197.85 204.95C199.84 205.12 201.81 206.09 203.75 207.88C205.31 209.31 206.4 211.08 207.02 213.19C207.64 215.3 207.63 217.55 207 219.92C206.37 222.3 205.05 224.58 203.05 226.76C201.16 228.83 199.1 230.35 196.86 231.34H196.88Z" fill="white"/>
<path d="M235.78 140.46L239.25 144.83L230.56 151.73L253.02 180.02L247.66 184.27L225.2 155.98L216.46 162.92L212.99 158.55L235.78 140.45V140.46Z" fill="white"/>
<path d="M310.29 132.78L295.02 141.24L296.52 150.15L290.27 153.61L283.1 109.84L290.03 106L323.34 135.29L317.04 138.78L310.29 132.78ZM305.91 128.83L290.59 115.16L294 135.43L305.91 128.83Z" fill="white"/>
<path d="M347.08 90.15C347.85 86.47 349.48 83.25 351.99 80.49C354.5 77.73 357.59 75.72 361.27 74.49C365.48 73.07 369.57 72.85 373.54 73.81C377.51 74.77 380.88 76.9 383.63 80.19L375.84 82.81C374.11 81.07 372.17 79.99 370.01 79.58C367.85 79.17 365.57 79.37 363.18 80.17C360.56 81.05 358.43 82.42 356.78 84.29C355.13 86.15 354.1 88.38 353.68 90.97C353.26 93.56 353.55 96.31 354.53 99.23C355.51 102.15 356.95 104.51 358.85 106.32C360.75 108.13 362.92 109.29 365.37 109.79C367.82 110.29 370.35 110.11 372.97 109.23C375.36 108.43 377.29 107.21 378.77 105.57C380.24 103.93 381.14 101.9 381.46 99.47L389.25 96.85C389.05 101.14 387.65 104.86 385.06 108.01C382.47 111.16 379.07 113.44 374.86 114.86C371.14 116.11 367.46 116.39 363.81 115.7C360.16 115.01 356.92 113.43 354.08 110.97C351.25 108.51 349.18 105.34 347.87 101.47C346.57 97.6 346.3 93.83 347.07 90.15H347.08Z" fill="white"/>
<path d="M452.91 96.52L434.2 80.43L436.94 98.89L430.17 99.89L424.04 58.64L430.81 57.64L433.6 76.45L446.83 55.26L455.32 54L440.46 77.32L461.74 95.21L452.9 96.52H452.91Z" fill="white"/>
<path d="M581.54 904.49C585.04 905.84 587.85 908.01 589.98 910.99C592.11 913.97 593.39 917.57 593.82 921.79C594.25 926.01 593.72 929.76 592.22 933.05C590.72 936.34 588.4 938.98 585.25 940.97C582.09 942.96 578.31 944.18 573.89 944.63L560.34 946.01L556.12 904.52L569.67 903.14C574.09 902.69 578.04 903.14 581.54 904.5V904.49ZM584.09 933.99C586.41 931.1 587.33 927.27 586.84 922.49C586.35 917.68 584.67 914.05 581.81 911.6C578.95 909.16 575.09 908.18 570.23 908.68L563.49 909.37L566.58 939.75L573.32 939.06C578.18 938.57 581.76 936.87 584.08 933.98L584.09 933.99Z" fill="white"/>
<path d="M633.08 897.31L636.42 909.09L650.27 905.17L651.79 910.54L637.93 914.46L641.41 926.76L657 922.34L658.52 927.71L636.35 933.99L624.97 893.81L647.14 887.53L648.66 892.9L633.07 897.32L633.08 897.31Z" fill="white"/>
<path d="M712.98 859.62L717.04 903.98L709.91 907.43L677.6 876.74L684.19 873.55L710.42 899.39L706.5 862.76L712.98 859.62Z" fill="white"/>
<path d="M749.72 842.59L756.87 852.52L768.56 844.1L771.82 848.63L760.13 857.04L767.6 867.41L780.75 857.94L784.01 862.47L765.31 875.93L740.91 842.04L759.61 828.58L762.87 833.11L749.72 842.58V842.59Z" fill="white"/>
<path d="M817.22 826.29L827.27 816.4L831.14 820.34L816.21 835.02L786.97 805.29L791.85 800.49L817.22 826.29Z" fill="white"/>
<path d="M860.68 782.07C857.3 783.66 853.74 784.28 849.98 783.93C846.22 783.58 842.69 782.22 839.37 779.84C836.05 777.47 833.63 774.56 832.1 771.13C830.57 767.7 830.01 764.13 830.43 760.42C830.85 756.71 832.18 753.28 834.44 750.12C836.72 746.93 839.55 744.54 842.93 742.95C846.31 741.36 849.86 740.74 853.59 741.09C857.32 741.45 860.84 742.81 864.16 745.18C867.48 747.55 869.92 750.45 871.47 753.88C873.03 757.31 873.6 760.87 873.18 764.59C872.76 768.31 871.42 771.75 869.14 774.94C866.88 778.1 864.07 780.47 860.69 782.06L860.68 782.07ZM867.06 764.39C867.29 761.9 866.81 759.48 865.62 757.12C864.43 754.77 862.58 752.69 860.07 750.9C857.57 749.11 855.01 748.03 852.42 747.68C849.82 747.32 847.39 747.66 845.13 748.7C842.86 749.74 840.93 751.37 839.32 753.62C837.71 755.87 836.79 758.23 836.54 760.7C836.29 763.18 836.76 765.59 837.93 767.93C839.11 770.27 840.95 772.34 843.45 774.13C845.96 775.92 848.51 777 851.13 777.37C853.74 777.74 856.19 777.41 858.47 776.39C860.75 775.37 862.7 773.73 864.3 771.49C865.91 769.25 866.82 766.88 867.06 764.39Z" fill="white"/>
<path d="M892.03 686.22C893.31 687.92 894.03 690.02 894.17 692.51C894.31 695 893.66 697.81 892.21 700.93L889.02 707.79L904.36 714.92L901.48 721.12L863.67 703.54L869.74 690.48C871.09 687.58 872.73 685.35 874.66 683.8C876.59 682.25 878.64 681.37 880.81 681.17C882.98 680.97 885.12 681.35 887.22 682.33C889.14 683.22 890.74 684.52 892.03 686.22ZM888 692.55C887.47 690.89 886.22 689.61 884.27 688.7C880.13 686.78 876.98 688.16 874.8 692.83L871.61 699.69L883.96 705.43L887.15 698.57C888.25 696.21 888.53 694.2 888 692.55Z" fill="white"/>
<path d="M894.43 640L906.23 643.25L910.05 629.37L915.43 630.85L911.61 644.73L923.93 648.12L928.23 632.5L933.61 633.98L927.5 656.19L887.24 645.11L893.36 622.9L898.74 624.38L894.44 640H894.43Z" fill="white"/>
<path d="M943.8 570.4L926.25 578.3L925.73 583.49L942.33 585.14L941.65 591.95L900.16 587.82L901.59 573.49C901.91 570.31 902.73 567.66 904.07 565.57C905.4 563.47 907.06 561.97 909.04 561.06C911.02 560.15 913.16 559.81 915.47 560.04C918.18 560.31 920.56 561.34 922.61 563.13C924.66 564.92 925.92 567.49 926.4 570.83L944.62 562.27L943.81 570.39L943.8 570.4ZM920.3 582.95L921.05 575.43C921.3 572.88 920.86 570.9 919.71 569.48C918.56 568.06 916.92 567.24 914.77 567.03C912.62 566.82 910.88 567.29 909.53 568.44C908.19 569.59 907.39 571.46 907.13 574.05L906.38 581.57L920.29 582.95H920.3Z" fill="white"/>
<path d="M220.31 500.42L295.24 461.2V481.09C295.24 482.51 294.87 483.82 294.13 485.02C293.39 486.22 292.22 487.26 290.62 488.12L264.35 502.27C262.75 503.13 261.05 503.86 259.26 504.44C257.47 505.03 255.59 505.57 253.62 506.06C255.59 506.56 257.47 507.06 259.26 507.59C261.05 508.12 262.74 508.81 264.35 509.67L290.62 523.91C292.22 524.77 293.39 525.79 294.13 526.96C294.87 528.13 295.24 529.43 295.24 530.84V550.73L220.31 511.6V500.41V500.42Z" fill="white"/>
<path d="M324.83 433.63H349.99C352.7 433.63 354.92 434.25 356.65 435.48C358.37 436.71 359.61 438.35 360.35 440.38L386.44 512.53C387.61 515.67 388.8 519.1 390 522.8C391.2 526.5 392.33 530.38 393.38 534.45C394.24 530.38 395.24 526.49 396.39 522.8C397.53 519.1 398.66 515.68 399.77 512.53L425.67 440.38C426.29 438.65 427.49 437.1 429.28 435.71C431.07 434.32 433.26 433.63 435.85 433.63H461.19L407.17 568.4H378.87L324.85 433.63H324.83Z" fill="white"/>
<path d="M512.79 488.21H517.79C522.41 488.21 525.75 486.76 527.78 483.86L558.12 439.83C559.78 437.43 561.68 435.79 563.81 434.93C565.94 434.07 568.54 433.64 571.63 433.64H598.83L558.87 488.12C557.45 490.09 555.97 491.73 554.43 493.02C552.89 494.32 551.31 495.4 549.71 496.26C552.05 497.12 554.2 498.31 556.14 499.82C558.08 501.33 559.85 503.35 561.46 505.88L602.16 568.41H574.22C572.43 568.41 570.91 568.29 569.64 568.04C568.37 567.79 567.28 567.42 566.36 566.93C565.43 566.44 564.63 565.84 563.95 565.13C563.27 564.42 562.62 563.6 562.01 562.68L531.48 515.78C530.37 514.05 528.97 512.84 527.27 512.13C525.57 511.42 523.28 511.07 520.38 511.07H512.79V568.42H481.52V433.65H512.79V488.23V488.21Z" fill="white"/>
<path d="M636.74 567.29C636.06 568.95 635.18 570.43 634.11 571.73C633.03 573.02 631.83 574.1 630.5 574.97C629.17 575.83 627.75 576.48 626.24 576.91C624.73 577.34 623.23 577.56 621.75 577.56H609.54L662.08 439.64C663.31 436.49 665.19 434.09 667.72 432.42C670.25 430.75 673.18 429.92 676.51 429.92H688.72L636.73 567.28L636.74 567.29Z" fill="white"/>
<path d="M790.29 511.61L715.36 550.74V530.85C715.36 529.43 715.73 528.14 716.47 526.97C717.21 525.8 718.38 524.78 719.99 523.92L746.26 509.68C747.8 508.82 749.48 508.12 751.3 507.6C753.12 507.08 755.01 506.57 756.99 506.07C755.02 505.58 753.12 505.04 751.3 504.45C749.48 503.86 747.8 503.14 746.26 502.28L719.99 488.13C718.39 487.27 717.21 486.23 716.47 485.03C715.73 483.83 715.36 482.52 715.36 481.1V461.21L790.29 500.43V511.62V511.61Z" fill="white"/>
</g>
<defs>
<clipPath id="clip0_1_104">
<rect width="1000" height="1000" fill="white"/>
</clipPath>
</defs>
</svg>
