<svg width="1000" height="1000" viewBox="0 0 1000 1000" fill="none" xmlns="http://www.w3.org/2000/svg">
<g clip-path="url(#clip0_1_172)">
<path d="M1000 0H0V1000H1000V0Z" fill="white"/>
<path d="M915.34 509.48C915.37 507.34 915.4 505.19 915.4 503.04C915.4 276.59 731.83 93.02 505.38 93.02" stroke="#5988FF" stroke-width="6" stroke-miterlimit="10"/>
<path d="M505.38 63.9199C747.9 63.9199 944.5 260.52 944.5 503.04C944.5 505.19 944.48 507.34 944.45 509.48" stroke="#5988FF" stroke-width="6" stroke-miterlimit="10"/>
<path d="M506.9 942.15C506.39 942.15 505.89 942.15 505.38 942.15C265.01 942.15 69.7501 749.02 66.3101 509.47" stroke="#5988FF" stroke-width="6" stroke-miterlimit="10"/>
<path d="M95.4102 509.48C98.8502 732.96 281.08 913.06 505.37 913.06C505.88 913.06 506.38 913.06 506.89 913.06" stroke="#5988FF" stroke-width="6" stroke-miterlimit="10"/>
<path d="M59.24 429.91L64.77 430.64L62.44 448.19L74.63 449.81L76.45 436.13L81.98 436.87L80.16 450.55L98.24 452.95L97.34 459.73L56 454.24L59.23 429.91H59.24Z" fill="#5988FF"/>
<path d="M70.1399 381.09L95.5799 388.8C98.6099 389.72 101.12 389.61 103.14 388.49C105.15 387.37 106.59 385.39 107.45 382.55C108.32 379.68 108.23 377.22 107.18 375.16C106.13 373.11 104.09 371.62 101.07 370.71L75.6299 363L77.6099 356.45L102.93 364.12C106.18 365.11 108.72 366.65 110.55 368.75C112.38 370.85 113.49 373.26 113.88 375.97C114.27 378.68 114.03 381.47 113.16 384.34C112.29 387.21 110.95 389.66 109.12 391.67C107.3 393.69 105.05 395.05 102.37 395.74C99.6899 396.43 96.7299 396.29 93.4699 395.3L68.1499 387.63L70.1299 381.09H70.1399Z" fill="#5988FF"/>
<path d="M130.33 323.79L136.49 311.11L141.45 313.52L132.31 332.36L94.7998 314.15L97.7898 308L130.34 323.8L130.33 323.79Z" fill="#5988FF"/>
<path d="M158.86 273.6L166.72 261.89L171.3 264.97L159.62 282.35L125 259.1L128.81 253.42L158.85 273.59L158.86 273.6Z" fill="#5988FF"/>
<path d="M196.88 231.34C194.64 232.33 192.43 232.69 190.24 232.42C188.05 232.15 186.07 231.2 184.3 229.58L189.24 224.18C190.67 225.28 192.25 225.75 193.95 225.61C195.66 225.47 197.28 224.55 198.82 222.87C200.41 221.13 201.24 219.39 201.29 217.65C201.34 215.91 200.7 214.43 199.38 213.21C198.35 212.26 197.23 211.8 196.03 211.81C194.83 211.81 193.64 212.11 192.46 212.69C191.28 213.26 189.76 214.16 187.88 215.37C185.51 216.89 183.48 218.03 181.79 218.78C180.1 219.54 178.27 219.83 176.31 219.66C174.35 219.49 172.41 218.53 170.49 216.77C168.72 215.15 167.58 213.29 167.06 211.19C166.54 209.09 166.66 206.92 167.41 204.68C168.16 202.44 169.5 200.27 171.41 198.18C174.14 195.2 177.12 193.44 180.35 192.9C183.58 192.36 186.59 193.18 189.37 195.35L184.26 200.92C183.06 199.98 181.61 199.63 179.93 199.88C178.24 200.12 176.67 201.04 175.21 202.63C173.88 204.08 173.17 205.59 173.07 207.18C172.97 208.77 173.61 210.2 175 211.47C175.94 212.34 176.98 212.76 178.11 212.74C179.24 212.72 180.39 212.43 181.55 211.87C182.71 211.31 184.21 210.45 186.02 209.3C188.44 207.78 190.52 206.63 192.26 205.86C194 205.09 195.86 204.79 197.85 204.96C199.84 205.13 201.81 206.1 203.75 207.89C205.31 209.32 206.4 211.1 207.02 213.2C207.64 215.31 207.63 217.56 207 219.93C206.37 222.31 205.05 224.59 203.05 226.77C201.16 228.84 199.09 230.36 196.86 231.35L196.88 231.34Z" fill="#5988FF"/>
<path d="M235.78 140.46L239.25 144.83L230.56 151.73L253.02 180.02L247.66 184.27L225.2 155.98L216.46 162.92L212.99 158.55L235.78 140.45V140.46Z" fill="#5988FF"/>
<path d="M310.29 132.78L295.02 141.24L296.52 150.15L290.28 153.61L283.11 109.84L290.04 106L323.35 135.29L317.05 138.78L310.3 132.78H310.29ZM305.91 128.83L290.59 115.16L294 135.43L305.91 128.83Z" fill="#5988FF"/>
<path d="M347.08 90.15C347.85 86.47 349.48 83.25 351.99 80.49C354.5 77.73 357.59 75.72 361.27 74.49C365.48 73.07 369.57 72.85 373.54 73.81C377.51 74.77 380.88 76.9 383.63 80.19L375.84 82.81C374.11 81.07 372.17 79.99 370 79.58C367.84 79.17 365.56 79.37 363.17 80.17C360.55 81.05 358.42 82.42 356.77 84.29C355.12 86.16 354.09 88.38 353.67 90.97C353.25 93.56 353.54 96.31 354.52 99.23C355.5 102.15 356.94 104.52 358.84 106.32C360.74 108.13 362.91 109.29 365.36 109.79C367.81 110.3 370.34 110.11 372.96 109.23C375.35 108.43 377.28 107.2 378.75 105.57C380.22 103.93 381.12 101.9 381.45 99.47L389.24 96.85C389.04 101.14 387.64 104.86 385.05 108.01C382.46 111.16 379.06 113.44 374.85 114.86C371.13 116.11 367.45 116.39 363.8 115.7C360.15 115.01 356.9 113.43 354.07 110.97C351.24 108.51 349.17 105.34 347.87 101.47C346.57 97.6 346.3 93.83 347.07 90.15H347.08Z" fill="#5988FF"/>
<path d="M452.91 96.52L434.2 80.43L436.94 98.89L430.17 99.89L424.04 58.64L430.8 57.64L433.59 76.45L446.82 55.26L455.31 54L440.45 77.32L461.73 95.21L452.89 96.52H452.91Z" fill="#5988FF"/>
<path d="M563.61 909.2L564.67 921.4L579.01 920.15L579.5 925.71L565.15 926.96L566.26 939.69L582.4 938.28L582.89 943.84L559.94 945.84L556.31 904.24L579.26 902.24L579.75 907.8L563.61 909.21V909.2Z" fill="#5988FF"/>
<path d="M651.01 930.19L644.37 931.84L616.89 906.58L624.4 936.8L617.76 938.45L607.69 897.92L614.33 896.27L641.8 921.47L634.3 891.31L640.94 889.66L651.01 930.19Z" fill="#5988FF"/>
<path d="M693.34 869.44L695.54 874.57L685.34 878.94L699.55 912.15L693.26 914.84L679.04 881.63L668.78 886.02L666.58 880.89L693.33 869.44H693.34Z" fill="#5988FF"/>
<path d="M762.69 827.46L775.48 869.03L769.03 873.32L744.26 851.88L753.98 883.31L747.62 887.61L714.66 859.38L720.7 855.36L746.69 878.86L735.69 845.4L742.09 841.15L768.04 864.46L756.59 831.51L762.69 827.46Z" fill="#5988FF"/>
<path d="M786.92 805.22L815.16 835.9L810.13 840.53L781.89 809.85L786.92 805.22Z" fill="#5988FF"/>
<path d="M815.93 790.21C814.63 786.68 814.31 783.09 814.98 779.41C815.64 775.74 817.2 772.4 819.67 769.4C822.49 765.97 825.84 763.61 829.72 762.31C833.6 761.02 837.58 761.04 841.66 762.37L836.44 768.72C834.05 768.16 831.83 768.28 829.78 769.08C827.73 769.88 825.9 771.25 824.3 773.2C822.55 775.33 821.47 777.63 821.05 780.08C820.64 782.54 820.94 784.97 821.96 787.39C822.98 789.81 824.68 791.99 827.06 793.94C829.44 795.9 831.92 797.14 834.48 797.67C837.05 798.2 839.5 798.03 841.85 797.16C844.19 796.29 846.24 794.79 847.99 792.66C849.59 790.71 850.58 788.65 850.96 786.48C851.34 784.31 851.03 782.11 850.01 779.88L855.23 773.53C857.33 777.27 858.12 781.17 857.59 785.21C857.06 789.25 855.39 792.99 852.58 796.42C850.09 799.45 847.12 801.64 843.66 802.99C840.2 804.34 836.61 804.72 832.9 804.13C829.19 803.54 825.76 801.95 822.61 799.37C819.46 796.78 817.23 793.72 815.93 790.2V790.21Z" fill="#5988FF"/>
<path d="M895.59 732.07L871.38 736.83L887.59 746.08L884.2 752.02L847.99 731.34L851.38 725.4L867.9 734.83L859.42 711.33L863.68 703.88L872.82 729.97L900.03 724.3L895.6 732.06L895.59 732.07Z" fill="#5988FF"/>
<path d="M910.93 686.26L916.09 673.14L921.23 675.16L913.56 694.64L874.76 679.37L877.27 673L910.94 686.25L910.93 686.26Z" fill="#5988FF"/>
<path d="M897.31 629.42L909.2 632.32L912.61 618.33L918.03 619.65L914.62 633.64L927.04 636.67L930.88 620.93L936.3 622.25L930.84 644.64L890.27 634.75L895.72 612.37L901.14 613.69L897.31 629.43V629.42Z" fill="#5988FF"/>
<path d="M944.13 566.09L926.67 574.17L926.21 579.37L942.83 580.85L942.22 587.66L900.68 583.96L901.96 569.62C902.24 566.43 903.04 563.78 904.35 561.67C905.66 559.56 907.3 558.04 909.27 557.11C911.24 556.18 913.38 555.82 915.69 556.02C918.4 556.26 920.79 557.27 922.86 559.04C924.93 560.81 926.22 563.37 926.73 566.7L944.85 557.95L944.13 566.08V566.09ZM920.76 578.89L921.43 571.36C921.66 568.81 921.19 566.83 920.03 565.42C918.87 564.01 917.22 563.21 915.06 563.02C912.91 562.83 911.17 563.32 909.84 564.48C908.51 565.65 907.73 567.52 907.5 570.11L906.83 577.64L920.76 578.88V578.89Z" fill="#5988FF"/>
<path d="M220.31 500.4L295.23 461.18V481.07C295.23 482.49 294.86 483.8 294.12 485C293.38 486.2 292.21 487.24 290.61 488.1L264.34 502.25C262.74 503.11 261.04 503.84 259.25 504.42C257.46 505.01 255.58 505.55 253.61 506.04C255.58 506.53 257.46 507.04 259.25 507.57C261.04 508.09 262.73 508.79 264.34 509.65L290.61 523.9C292.21 524.76 293.38 525.78 294.12 526.95C294.86 528.12 295.23 529.42 295.23 530.84V550.73L220.31 511.6V500.41V500.4Z" fill="#5988FF"/>
<path d="M324.83 433.62H349.99C352.7 433.62 354.92 434.24 356.65 435.47C358.38 436.7 359.61 438.34 360.35 440.37L386.44 512.52C387.61 515.67 388.8 519.09 390 522.79C391.2 526.49 392.33 530.37 393.38 534.45C394.24 530.38 395.24 526.49 396.39 522.79C397.53 519.09 398.66 515.67 399.77 512.52L425.67 440.37C426.29 438.64 427.49 437.09 429.28 435.7C431.07 434.31 433.26 433.62 435.85 433.62H461.19L407.17 568.39H378.86L324.84 433.62H324.83Z" fill="#5988FF"/>
<path d="M512.79 488.19H517.79C522.41 488.19 525.75 486.74 527.78 483.84L558.12 439.81C559.79 437.4 561.68 435.77 563.81 434.91C565.94 434.05 568.54 433.62 571.63 433.62H598.82L558.86 488.1C557.44 490.07 555.96 491.71 554.42 493C552.88 494.29 551.3 495.38 549.7 496.24C552.04 497.1 554.19 498.29 556.13 499.8C558.07 501.31 559.84 503.33 561.45 505.86L602.15 568.39H574.22C572.43 568.39 570.9 568.27 569.64 568.02C568.38 567.77 567.28 567.4 566.36 566.91C565.43 566.42 564.63 565.82 563.95 565.11C563.27 564.4 562.62 563.58 562.01 562.66L531.48 515.76C530.37 514.03 528.97 512.82 527.27 512.11C525.57 511.4 523.28 511.05 520.38 511.05H512.8V568.4H481.53V433.63H512.8V488.21L512.79 488.19Z" fill="#5988FF"/>
<path d="M636.74 567.28C636.06 568.95 635.18 570.43 634.1 571.72C633.02 573.01 631.82 574.09 630.49 574.96C629.16 575.82 627.74 576.47 626.24 576.9C624.73 577.33 623.23 577.55 621.75 577.55H609.54L662.08 439.63C663.31 436.49 665.19 434.08 667.72 432.42C670.25 430.75 673.18 429.92 676.51 429.92H688.72L636.73 567.28H636.74Z" fill="#5988FF"/>
<path d="M790.29 511.6L715.36 550.73V530.84C715.36 529.42 715.73 528.13 716.47 526.95C717.21 525.78 718.38 524.76 719.98 523.9L746.25 509.65C747.79 508.79 749.47 508.09 751.29 507.57C753.11 507.05 755 506.54 756.98 506.04C755.01 505.55 753.11 505.01 751.29 504.42C749.47 503.84 747.79 503.11 746.25 502.25L719.98 488.1C718.38 487.24 717.21 486.2 716.47 485C715.73 483.8 715.36 482.49 715.36 481.07V461.18L790.29 500.4V511.59V511.6Z" fill="#5988FF"/>
</g>
<defs>
<clipPath id="clip0_1_172">
<rect width="1000" height="1000" fill="white"/>
</clipPath>
</defs>
</svg>
