<svg width="1000" height="1000" viewBox="0 0 1000 1000" fill="none" xmlns="http://www.w3.org/2000/svg">
<g clip-path="url(#clip0_6_35)">
<path d="M1000 0H0V1000H1000V0Z" fill="white"/>
<path d="M915.34 509.48C915.37 507.34 915.4 505.19 915.4 503.04C915.4 276.59 731.83 93.02 505.38 93.02" stroke="#333333" stroke-width="6" stroke-miterlimit="10"/>
<path d="M505.38 63.9199C747.9 63.9199 944.5 260.52 944.5 503.04C944.5 505.19 944.48 507.34 944.45 509.48" stroke="#333333" stroke-width="6" stroke-miterlimit="10"/>
<path d="M506.9 942.15C506.39 942.15 505.89 942.15 505.38 942.15C265.01 942.15 69.7501 749.02 66.3101 509.47" stroke="#333333" stroke-width="6" stroke-miterlimit="10"/>
<path d="M95.41 509.48C98.85 732.96 281.08 913.06 505.37 913.06C505.88 913.06 506.38 913.06 506.89 913.06" stroke="#333333" stroke-width="6" stroke-miterlimit="10"/>
<path d="M59.24 429.91L64.77 430.64L62.44 448.19L74.63 449.81L76.45 436.13L81.98 436.87L80.16 450.55L98.24 452.95L97.34 459.73L56 454.24L59.23 429.91H59.24Z" fill="#333333"/>
<path d="M70.14 381.09L95.58 388.8C98.61 389.72 101.12 389.61 103.14 388.49C105.15 387.37 106.59 385.39 107.45 382.55C108.32 379.68 108.23 377.22 107.18 375.16C106.13 373.11 104.09 371.62 101.07 370.71L75.63 363L77.61 356.45L102.93 364.12C106.18 365.11 108.72 366.65 110.55 368.75C112.38 370.85 113.49 373.26 113.88 375.97C114.27 378.68 114.03 381.47 113.16 384.34C112.29 387.21 110.95 389.66 109.12 391.67C107.3 393.69 105.05 395.05 102.37 395.74C99.69 396.43 96.73 396.29 93.47 395.3L68.15 387.63L70.13 381.09H70.14Z" fill="#333333"/>
<path d="M130.33 323.79L136.49 311.11L141.45 313.52L132.31 332.36L94.8 314.15L97.7901 308L130.34 323.8L130.33 323.79Z" fill="#333333"/>
<path d="M158.86 273.6L166.72 261.89L171.3 264.97L159.62 282.35L125 259.1L128.81 253.42L158.85 273.59L158.86 273.6Z" fill="#333333"/>
<path d="M196.88 231.34C194.64 232.33 192.43 232.69 190.24 232.42C188.05 232.15 186.07 231.2 184.3 229.58L189.24 224.18C190.67 225.28 192.25 225.75 193.95 225.61C195.66 225.47 197.28 224.55 198.82 222.87C200.41 221.13 201.24 219.39 201.29 217.65C201.34 215.91 200.7 214.43 199.38 213.21C198.35 212.26 197.23 211.8 196.03 211.81C194.83 211.81 193.64 212.11 192.46 212.69C191.28 213.26 189.76 214.16 187.88 215.37C185.51 216.89 183.48 218.03 181.79 218.78C180.1 219.54 178.27 219.83 176.31 219.66C174.35 219.49 172.41 218.53 170.49 216.77C168.72 215.15 167.58 213.29 167.06 211.19C166.54 209.09 166.66 206.92 167.41 204.68C168.16 202.44 169.5 200.27 171.41 198.18C174.14 195.2 177.12 193.44 180.35 192.9C183.58 192.36 186.59 193.18 189.37 195.35L184.26 200.92C183.06 199.98 181.61 199.63 179.93 199.88C178.24 200.12 176.67 201.04 175.21 202.63C173.88 204.08 173.17 205.59 173.07 207.18C172.97 208.77 173.61 210.2 175 211.47C175.94 212.34 176.98 212.76 178.11 212.74C179.24 212.72 180.39 212.43 181.55 211.87C182.71 211.31 184.21 210.45 186.02 209.3C188.44 207.78 190.52 206.63 192.26 205.86C194 205.09 195.86 204.79 197.85 204.96C199.84 205.13 201.81 206.1 203.75 207.89C205.31 209.32 206.4 211.1 207.02 213.2C207.64 215.31 207.63 217.56 207 219.93C206.37 222.31 205.05 224.59 203.05 226.77C201.16 228.84 199.09 230.36 196.86 231.35L196.88 231.34Z" fill="#333333"/>
<path d="M235.78 140.46L239.25 144.83L230.56 151.73L253.02 180.02L247.66 184.27L225.2 155.98L216.46 162.92L212.99 158.55L235.78 140.45V140.46Z" fill="#333333"/>
<path d="M310.29 132.78L295.02 141.24L296.52 150.15L290.28 153.61L283.11 109.84L290.04 106L323.35 135.29L317.05 138.78L310.3 132.78H310.29ZM305.91 128.83L290.59 115.16L294 135.43L305.91 128.83Z" fill="#333333"/>
<path d="M347.08 90.15C347.85 86.47 349.48 83.25 351.99 80.49C354.5 77.73 357.59 75.72 361.27 74.49C365.48 73.07 369.57 72.85 373.54 73.81C377.51 74.77 380.88 76.9 383.63 80.19L375.84 82.81C374.11 81.07 372.17 79.99 370 79.58C367.84 79.17 365.56 79.37 363.17 80.17C360.55 81.05 358.42 82.42 356.77 84.29C355.12 86.16 354.09 88.38 353.67 90.97C353.25 93.56 353.54 96.31 354.52 99.23C355.5 102.15 356.94 104.52 358.84 106.32C360.74 108.13 362.91 109.29 365.36 109.79C367.81 110.3 370.34 110.11 372.96 109.23C375.35 108.43 377.28 107.2 378.75 105.57C380.22 103.93 381.12 101.9 381.45 99.47L389.24 96.85C389.04 101.14 387.64 104.86 385.05 108.01C382.46 111.16 379.06 113.44 374.85 114.86C371.13 116.11 367.45 116.39 363.8 115.7C360.15 115.01 356.9 113.43 354.07 110.97C351.24 108.51 349.17 105.34 347.87 101.47C346.57 97.6 346.3 93.83 347.07 90.15H347.08Z" fill="#333333"/>
<path d="M452.91 96.52L434.2 80.43L436.94 98.89L430.17 99.89L424.04 58.64L430.8 57.64L433.59 76.45L446.82 55.26L455.31 54L440.45 77.32L461.73 95.21L452.89 96.52H452.91Z" fill="#333333"/>
<path d="M563.61 909.2L564.67 921.4L579.01 920.15L579.5 925.71L565.15 926.96L566.26 939.69L582.4 938.28L582.89 943.84L559.94 945.84L556.31 904.24L579.26 902.24L579.75 907.8L563.61 909.21V909.2Z" fill="#333333"/>
<path d="M651.01 930.19L644.37 931.84L616.89 906.58L624.4 936.8L617.76 938.45L607.69 897.92L614.33 896.27L641.8 921.47L634.3 891.31L640.94 889.66L651.01 930.19Z" fill="#333333"/>
<path d="M693.34 869.44L695.54 874.57L685.34 878.94L699.55 912.15L693.26 914.84L679.04 881.63L668.78 886.02L666.58 880.89L693.33 869.44H693.34Z" fill="#333333"/>
<path d="M762.69 827.46L775.48 869.03L769.03 873.32L744.26 851.88L753.98 883.31L747.62 887.61L714.66 859.38L720.7 855.36L746.69 878.86L735.69 845.4L742.09 841.15L768.04 864.46L756.59 831.51L762.69 827.46Z" fill="#333333"/>
<path d="M786.92 805.22L815.16 835.9L810.13 840.53L781.89 809.85L786.92 805.22Z" fill="#333333"/>
<path d="M815.93 790.21C814.63 786.68 814.31 783.09 814.98 779.41C815.64 775.74 817.2 772.4 819.67 769.4C822.49 765.97 825.84 763.61 829.72 762.31C833.6 761.02 837.58 761.04 841.66 762.37L836.44 768.72C834.05 768.16 831.83 768.28 829.78 769.08C827.73 769.88 825.9 771.25 824.3 773.2C822.55 775.33 821.47 777.63 821.05 780.08C820.64 782.54 820.94 784.97 821.96 787.39C822.98 789.81 824.68 791.99 827.06 793.94C829.44 795.9 831.92 797.14 834.48 797.67C837.05 798.2 839.5 798.03 841.85 797.16C844.19 796.29 846.24 794.79 847.99 792.66C849.59 790.71 850.58 788.65 850.96 786.48C851.34 784.31 851.03 782.11 850.01 779.88L855.23 773.53C857.33 777.27 858.12 781.17 857.59 785.21C857.06 789.25 855.39 792.99 852.58 796.42C850.09 799.45 847.12 801.64 843.66 802.99C840.2 804.34 836.61 804.72 832.9 804.13C829.19 803.54 825.76 801.95 822.61 799.37C819.46 796.78 817.23 793.72 815.93 790.2V790.21Z" fill="#333333"/>
<path d="M895.59 732.07L871.38 736.83L887.59 746.08L884.2 752.02L847.99 731.34L851.38 725.4L867.9 734.83L859.42 711.33L863.68 703.88L872.82 729.97L900.03 724.3L895.6 732.06L895.59 732.07Z" fill="#333333"/>
<path d="M910.93 686.26L916.09 673.14L921.23 675.16L913.56 694.64L874.76 679.37L877.27 673L910.94 686.25L910.93 686.26Z" fill="#333333"/>
<path d="M897.31 629.42L909.2 632.32L912.61 618.33L918.03 619.65L914.62 633.64L927.04 636.67L930.88 620.93L936.3 622.25L930.84 644.64L890.27 634.75L895.72 612.37L901.14 613.69L897.31 629.43V629.42Z" fill="#333333"/>
<path d="M944.13 566.09L926.67 574.17L926.21 579.37L942.83 580.85L942.22 587.66L900.68 583.96L901.96 569.62C902.24 566.43 903.04 563.78 904.35 561.67C905.66 559.56 907.3 558.04 909.27 557.11C911.24 556.18 913.38 555.82 915.69 556.02C918.4 556.26 920.79 557.27 922.86 559.04C924.93 560.81 926.22 563.37 926.73 566.7L944.85 557.95L944.13 566.08V566.09ZM920.76 578.89L921.43 571.36C921.66 568.81 921.19 566.83 920.03 565.42C918.87 564.01 917.22 563.21 915.06 563.02C912.91 562.83 911.17 563.32 909.84 564.48C908.51 565.65 907.73 567.52 907.5 570.11L906.83 577.64L920.76 578.88V578.89Z" fill="#333333"/>
<path d="M248.65 530.26C248.65 525.06 247.44 520.82 245.01 517.54C242.58 514.26 238.68 512.62 233.31 512.62V494.34C238.68 494.34 242.58 492.7 245.01 489.42C247.44 486.14 248.65 481.9 248.65 476.7C248.65 472.7 248.37 468.71 247.82 464.75C247.27 460.79 246.63 456.8 245.9 452.8C245.17 448.8 244.54 444.77 243.98 440.72C243.43 436.67 243.15 432.56 243.15 428.38C243.15 421.9 244.09 416 245.96 410.67C247.83 405.34 250.71 400.76 254.59 396.93C258.47 393.1 263.37 390.14 269.29 388.05C275.21 385.96 282.18 384.92 290.19 384.92H296.97V398.98C296.97 400.09 296.73 401.05 296.27 401.86C295.8 402.67 295.2 403.33 294.48 403.84C293.75 404.35 293.01 404.73 292.24 404.99C291.47 405.25 290.79 405.37 290.19 405.37H289.04C283.07 405.37 278.51 407.25 275.36 410.99C272.21 414.74 270.63 419.9 270.63 426.46C270.63 431.15 270.89 435.64 271.4 439.95C271.91 444.25 272.44 448.43 273 452.48C273.55 456.53 274.09 460.51 274.6 464.43C275.11 468.35 275.37 472.31 275.37 476.32C275.37 479.56 274.92 482.63 274.03 485.52C273.13 488.42 271.81 491.04 270.07 493.38C268.32 495.73 266.24 497.79 263.81 499.58C261.38 501.37 258.63 502.69 255.56 503.54C258.63 504.48 261.38 505.82 263.81 507.57C266.24 509.32 268.33 511.39 270.07 513.77C271.82 516.16 273.14 518.8 274.03 521.7C274.92 524.6 275.37 527.62 275.37 530.78C275.37 534.79 275.11 538.75 274.6 542.67C274.09 546.59 273.56 550.58 273 554.62C272.45 558.67 271.91 562.85 271.4 567.15C270.89 571.45 270.63 575.95 270.63 580.64C270.63 587.11 272.21 592.23 275.36 595.98C278.51 599.73 283.07 601.6 289.04 601.6H290.19C290.79 601.6 291.47 601.73 292.24 601.98C293.01 602.24 293.75 602.62 294.48 603.13C295.2 603.64 295.8 604.32 296.27 605.17C296.74 606.02 296.97 607 296.97 608.11V622.04H290.19C282.18 622.04 275.21 621 269.29 618.91C263.37 616.82 258.47 613.88 254.59 610.09C250.71 606.3 247.84 601.74 245.96 596.41C244.08 591.08 243.15 585.18 243.15 578.7C243.15 574.53 243.43 570.41 243.98 566.36C244.53 562.31 245.17 558.29 245.9 554.28C246.62 550.28 247.26 546.27 247.82 542.26C248.37 538.26 248.65 534.25 248.65 530.24V530.26Z" fill="#333333"/>
<path d="M319.59 397.83H347.33C350.31 397.83 352.74 398.55 354.62 400C356.49 401.45 357.9 403.32 358.84 405.62L402.3 518.37C403.75 522.04 405.13 526.06 406.45 530.45C407.77 534.84 409.03 539.46 410.22 544.32C412.18 534.52 414.61 525.87 417.51 518.37L460.84 405.62C461.61 403.66 462.97 401.87 464.93 400.25C466.89 398.63 469.32 397.82 472.22 397.82H499.96L425.31 582.66H394.25L319.6 397.82L319.59 397.83Z" fill="#333333"/>
<path d="M567.58 475.29H575.63C578.87 475.29 581.55 474.84 583.68 473.95C585.81 473.05 587.64 471.63 589.18 469.67L640.18 405.11C642.31 402.38 644.55 400.49 646.89 399.42C649.23 398.36 652.19 397.82 655.77 397.82H685.43L623.18 474.65C621.22 477.04 619.35 479.04 617.56 480.66C615.77 482.28 613.85 483.6 611.81 484.62C614.62 485.64 617.16 487.09 619.42 488.97C621.68 490.85 623.87 493.23 626 496.13L690.17 582.67H659.75C655.66 582.67 652.61 582.09 650.61 580.94C648.61 579.79 646.92 578.11 645.56 575.89L593.28 507.63C591.57 505.42 589.66 503.82 587.53 502.84C585.4 501.86 582.37 501.37 578.45 501.37H567.58V582.67H533.19V397.7H567.58V475.29Z" fill="#333333"/>
<path d="M762.27 530.26C762.27 534.27 762.55 538.27 763.1 542.28C763.65 546.29 764.29 550.29 765.02 554.3C765.74 558.31 766.38 562.33 766.94 566.38C767.49 570.43 767.77 574.54 767.77 578.72C767.77 585.2 766.83 591.1 764.96 596.43C763.08 601.76 760.21 606.31 756.33 610.11C752.45 613.9 747.55 616.84 741.63 618.93C735.71 621.02 728.74 622.06 720.73 622.06H713.96V608.13C713.96 607.02 714.19 606.04 714.66 605.19C715.13 604.34 715.72 603.66 716.45 603.15C717.17 602.64 717.92 602.26 718.69 602C719.46 601.74 720.14 601.62 720.73 601.62H721.88C727.84 601.62 732.4 599.74 735.56 596C738.71 592.25 740.29 587.13 740.29 580.66C740.29 575.97 740.03 571.48 739.52 567.17C739.01 562.87 738.48 558.69 737.92 554.64C737.37 550.59 736.83 546.61 736.32 542.69C735.81 538.77 735.55 534.81 735.55 530.8C735.55 527.65 736 524.62 736.89 521.72C737.78 518.82 739.08 516.18 740.79 513.79C742.49 511.41 744.58 509.34 747.05 507.59C749.52 505.84 752.29 504.5 755.36 503.56C752.29 502.71 749.52 501.39 747.05 499.6C744.58 497.81 742.49 495.75 740.79 493.4C739.08 491.06 737.79 488.44 736.89 485.54C736 482.64 735.55 479.58 735.55 476.34C735.55 472.34 735.81 468.37 736.32 464.45C736.83 460.53 737.36 456.55 737.92 452.5C738.47 448.45 739.01 444.28 739.52 439.97C740.03 435.67 740.29 431.17 740.29 426.48C740.29 419.92 738.71 414.76 735.56 411.01C732.41 407.26 727.85 405.39 721.88 405.39H720.73C720.13 405.39 719.45 405.26 718.69 405.01C717.93 404.76 717.18 404.37 716.45 403.86C715.73 403.35 715.13 402.69 714.66 401.88C714.19 401.07 713.96 400.11 713.96 399V384.94H720.73C728.74 384.94 735.71 385.98 741.63 388.07C747.55 390.16 752.45 393.12 756.33 396.95C760.21 400.78 763.08 405.37 764.96 410.69C766.83 416.02 767.77 421.92 767.77 428.4C767.77 432.58 767.49 436.69 766.94 440.74C766.38 444.79 765.75 448.82 765.02 452.82C764.3 456.83 763.66 460.81 763.1 464.77C762.54 468.73 762.27 472.72 762.27 476.72C762.27 481.92 763.48 486.16 765.91 489.44C768.34 492.72 772.24 494.36 777.61 494.36V512.64C772.24 512.64 768.34 514.28 765.91 517.56C763.48 520.84 762.27 525.08 762.27 530.28V530.26Z" fill="#333333"/>
</g>
<defs>
<clipPath id="clip0_6_35">
<rect width="1000" height="1000" fill="white"/>
</clipPath>
</defs>
</svg>
