<svg class="v2" width="1000" height="1000" viewBox="0 0 1000 1000" fill="none" xmlns="http://www.w3.org/2000/svg">
<g clip-path="url(#clip0_6_69)">
<path d="M1000 0H0V1000H1000V0Z" fill="none"/>
<path d="M914.34 509.48C914.37 507.34 914.4 505.19 914.4 503.04C914.4 276.59 730.83 93.02 504.38 93.02" stroke="currentColor" stroke-width="6" stroke-miterlimit="10"/>
<path d="M504.38 63.92C746.9 63.92 943.5 260.52 943.5 503.04C943.5 505.19 943.48 507.34 943.45 509.48" stroke="currentColor" stroke-width="6" stroke-miterlimit="10"/>
<path d="M505.9 942.15C505.39 942.15 504.89 942.15 504.38 942.15C264.01 942.15 68.7501 749.02 65.3101 509.47" stroke="currentColor" stroke-width="6" stroke-miterlimit="10"/>
<path d="M94.41 509.48C97.85 732.96 280.08 913.06 504.37 913.06C504.88 913.06 505.38 913.06 505.89 913.06" stroke="currentColor" stroke-width="6" stroke-miterlimit="10"/>
<path d="M58.24 429.91L63.77 430.64L61.44 448.19L73.63 449.81L75.45 436.13L80.98 436.87L79.16 450.55L97.24 452.95L96.34 459.73L55 454.24L58.23 429.91H58.24Z" fill="currentColor"/>
<path d="M69.14 381.09L94.58 388.8C97.6 389.72 100.12 389.61 102.14 388.49C104.15 387.37 105.59 385.39 106.44 382.55C107.31 379.68 107.22 377.22 106.17 375.16C105.12 373.11 103.08 371.62 100.06 370.71L74.62 363L76.6 356.45L101.92 364.12C105.17 365.11 107.72 366.65 109.55 368.75C111.38 370.85 112.49 373.26 112.88 375.97C113.27 378.68 113.03 381.47 112.16 384.34C111.29 387.21 109.94 389.66 108.12 391.67C106.3 393.69 104.05 395.05 101.37 395.74C98.69 396.43 95.73 396.29 92.47 395.3L67.15 387.63L69.13 381.08L69.14 381.09Z" fill="currentColor"/>
<path d="M129.33 323.79L135.49 311.11L140.46 313.52L131.32 332.36L93.8101 314.15L96.8001 308L129.35 323.8L129.33 323.79Z" fill="currentColor"/>
<path d="M157.86 273.6L165.72 261.89L170.3 264.97L158.62 282.35L124 259.1L127.81 253.42L157.84 273.59L157.86 273.6Z" fill="currentColor"/>
<path d="M195.88 231.34C193.64 232.33 191.43 232.69 189.24 232.42C187.05 232.15 185.07 231.2 183.3 229.58L188.24 224.18C189.67 225.28 191.25 225.75 192.95 225.61C194.66 225.47 196.28 224.55 197.82 222.87C199.41 221.13 200.24 219.39 200.29 217.64C200.34 215.9 199.7 214.42 198.37 213.2C197.34 212.25 196.22 211.79 195.02 211.8C193.82 211.81 192.63 212.1 191.45 212.68C190.27 213.26 188.75 214.15 186.88 215.36C184.51 216.88 182.48 218.02 180.79 218.77C179.1 219.52 177.27 219.82 175.31 219.65C173.35 219.48 171.41 218.52 169.49 216.76C167.72 215.14 166.58 213.28 166.06 211.18C165.54 209.08 165.66 206.91 166.41 204.67C167.16 202.43 168.49 200.26 170.41 198.17C173.14 195.19 176.12 193.43 179.35 192.89C182.58 192.35 185.59 193.17 188.37 195.34L183.26 200.91C182.06 199.97 180.61 199.62 178.93 199.87C177.24 200.11 175.67 201.03 174.21 202.62C172.89 204.07 172.17 205.58 172.07 207.17C171.97 208.76 172.61 210.19 174 211.46C174.94 212.33 175.98 212.75 177.11 212.73C178.24 212.71 179.39 212.42 180.55 211.86C181.71 211.3 183.21 210.44 185.02 209.29C187.44 207.77 189.52 206.62 191.26 205.85C193 205.08 194.86 204.78 196.85 204.95C198.84 205.12 200.81 206.09 202.75 207.88C204.31 209.31 205.4 211.08 206.02 213.19C206.64 215.3 206.63 217.55 206 219.92C205.37 222.3 204.05 224.58 202.05 226.76C200.16 228.83 198.1 230.35 195.86 231.34H195.88Z" fill="currentColor"/>
<path d="M234.78 140.46L238.25 144.83L229.56 151.73L252.02 180.02L246.66 184.27L224.2 155.98L215.46 162.92L211.99 158.55L234.78 140.45V140.46Z" fill="currentColor"/>
<path d="M309.29 132.78L294.02 141.24L295.52 150.15L289.27 153.61L282.1 109.84L289.03 106L322.34 135.29L316.04 138.78L309.29 132.78ZM304.91 128.83L289.59 115.16L293 135.43L304.91 128.83Z" fill="currentColor"/>
<path d="M346.08 90.15C346.85 86.47 348.48 83.25 350.99 80.49C353.5 77.73 356.59 75.72 360.27 74.49C364.48 73.07 368.57 72.85 372.54 73.81C376.51 74.77 379.88 76.9 382.63 80.19L374.84 82.81C373.11 81.07 371.17 79.99 369.01 79.58C366.85 79.17 364.57 79.37 362.18 80.17C359.56 81.05 357.43 82.42 355.78 84.29C354.13 86.16 353.1 88.38 352.68 90.97C352.26 93.56 352.55 96.31 353.53 99.23C354.51 102.15 355.95 104.51 357.85 106.32C359.75 108.13 361.92 109.29 364.37 109.79C366.82 110.29 369.35 110.11 371.97 109.23C374.36 108.43 376.29 107.21 377.77 105.57C379.24 103.93 380.14 101.9 380.46 99.47L388.25 96.85C388.05 101.14 386.65 104.86 384.06 108.01C381.47 111.16 378.07 113.44 373.86 114.86C370.14 116.11 366.46 116.39 362.81 115.7C359.16 115.01 355.92 113.43 353.08 110.97C350.25 108.51 348.18 105.34 346.87 101.47C345.57 97.6 345.3 93.83 346.07 90.15H346.08Z" fill="currentColor"/>
<path d="M451.91 96.52L433.2 80.43L435.94 98.89L429.17 99.89L423.04 58.64L429.81 57.64L432.6 76.45L445.83 55.26L454.32 54L439.46 77.32L460.74 95.21L451.9 96.52H451.91Z" fill="currentColor"/>
<path d="M562.61 909.2L563.67 921.39L578.01 920.14L578.5 925.7L564.15 926.95L565.26 939.68L581.4 938.27L581.89 943.83L558.94 945.83L555.31 904.23L578.26 902.23L578.75 907.79L562.61 909.2Z" fill="currentColor"/>
<path d="M650.62 930.01L643.99 931.67L616.47 906.46L624.03 936.67L617.39 938.33L607.26 897.82L613.9 896.16L641.41 921.32L633.87 891.17L640.5 889.51L650.63 930.02L650.62 930.01Z" fill="currentColor"/>
<path d="M693.38 868.94L695.59 874.06L685.4 878.46L699.72 911.62L693.44 914.33L679.12 881.17L668.87 885.59L666.66 880.47L693.37 868.93L693.38 868.94Z" fill="currentColor"/>
<path d="M763.03 826.41L776.01 867.92L769.58 872.23L744.72 850.91L754.59 882.3L748.25 886.63L715.16 858.55L721.19 854.5L747.29 877.88L736.13 844.47L742.51 840.19L768.56 863.39L756.95 830.49L763.03 826.41Z" fill="currentColor"/>
<path d="M787.58 803.65L816.01 834.16L811.01 838.82L782.58 808.31L787.58 803.65Z" fill="currentColor"/>
<path d="M816.9 788.02C815.57 784.51 815.23 780.91 815.86 777.23C816.49 773.55 818.03 770.2 820.47 767.19C823.26 763.74 826.59 761.35 830.46 760.03C834.33 758.71 838.31 758.7 842.4 760L837.23 766.39C834.84 765.85 832.62 765.98 830.57 766.8C828.52 767.62 826.71 769 825.12 770.96C823.39 773.11 822.32 775.41 821.93 777.87C821.54 780.33 821.86 782.76 822.9 785.17C823.94 787.58 825.65 789.75 828.05 791.68C830.45 793.62 832.93 794.84 835.5 795.35C838.07 795.86 840.53 795.67 842.86 794.78C845.19 793.89 847.23 792.38 848.97 790.23C850.55 788.27 851.53 786.2 851.9 784.03C852.27 781.86 851.93 779.66 850.9 777.44L856.07 771.05C858.2 774.78 859.02 778.67 858.52 782.71C858.03 786.76 856.38 790.51 853.59 793.96C851.13 797.01 848.17 799.22 844.72 800.6C841.27 801.98 837.68 802.39 833.97 801.83C830.26 801.27 826.81 799.71 823.64 797.15C820.47 794.58 818.22 791.54 816.89 788.03L816.9 788.02Z" fill="currentColor"/>
<path d="M896.41 728.69L872.25 733.68L888.54 742.78L885.2 748.75L848.8 728.41L852.14 722.44L868.74 731.72L860.04 708.3L864.22 700.81L873.61 726.81L900.77 720.89L896.41 728.69Z" fill="currentColor"/>
<path d="M911.55 682.14L916.57 668.96L921.73 670.92L914.28 690.49L875.31 675.65L877.74 669.26L911.55 682.14Z" fill="currentColor"/>
<path d="M897.45 624.87L909.38 627.62L912.61 613.59L918.05 614.84L914.82 628.87L927.27 631.74L930.91 615.95L936.35 617.2L931.18 639.65L890.48 630.28L895.65 607.83L901.09 609.08L897.45 624.87Z" fill="currentColor"/>
<path d="M943.5 560.32L926.15 568.65L925.76 573.86L942.39 575.1L941.88 581.92L900.3 578.81L901.37 564.45C901.61 561.26 902.37 558.6 903.65 556.47C904.93 554.34 906.55 552.8 908.51 551.84C910.47 550.88 912.6 550.49 914.92 550.67C917.63 550.87 920.04 551.84 922.13 553.59C924.23 555.33 925.55 557.87 926.1 561.2L944.1 552.2L943.49 560.34L943.5 560.32ZM920.32 573.45L920.88 565.91C921.07 563.36 920.58 561.39 919.4 559.99C918.22 558.6 916.55 557.82 914.4 557.66C912.25 557.5 910.51 558.01 909.2 559.2C907.89 560.39 907.13 562.27 906.94 564.87L906.38 572.41L920.32 573.45Z" fill="currentColor"/>
<path d="M247.65 530.26C247.65 525.06 246.44 520.82 244.01 517.54C241.58 514.26 237.68 512.62 232.31 512.62V494.34C237.68 494.34 241.58 492.7 244.01 489.42C246.44 486.14 247.65 481.9 247.65 476.7C247.65 472.7 247.37 468.71 246.82 464.75C246.27 460.79 245.63 456.8 244.9 452.8C244.17 448.8 243.54 444.77 242.98 440.72C242.43 436.67 242.15 432.56 242.15 428.38C242.15 421.9 243.09 416 244.96 410.67C246.83 405.34 249.71 400.76 253.59 396.93C257.47 393.1 262.37 390.14 268.29 388.05C274.21 385.96 281.18 384.92 289.19 384.92H295.97V398.98C295.97 400.09 295.73 401.05 295.27 401.86C294.8 402.67 294.2 403.33 293.48 403.84C292.75 404.35 292.01 404.73 291.24 404.99C290.47 405.25 289.79 405.37 289.19 405.37H288.04C282.07 405.37 277.51 407.25 274.36 410.99C271.21 414.74 269.63 419.9 269.63 426.46C269.63 431.15 269.89 435.64 270.4 439.95C270.91 444.25 271.44 448.43 272 452.48C272.55 456.53 273.09 460.51 273.6 464.43C274.11 468.35 274.37 472.31 274.37 476.32C274.37 479.56 273.92 482.63 273.03 485.52C272.13 488.42 270.81 491.04 269.07 493.38C267.32 495.73 265.24 497.79 262.81 499.58C260.38 501.37 257.63 502.69 254.56 503.54C257.63 504.48 260.38 505.82 262.81 507.57C265.24 509.32 267.33 511.39 269.07 513.77C270.82 516.16 272.14 518.8 273.03 521.7C273.92 524.6 274.37 527.62 274.37 530.78C274.37 534.79 274.11 538.75 273.6 542.67C273.09 546.59 272.56 550.58 272 554.62C271.45 558.67 270.91 562.85 270.4 567.15C269.89 571.45 269.63 575.95 269.63 580.64C269.63 587.11 271.21 592.23 274.36 595.98C277.51 599.73 282.07 601.6 288.04 601.6H289.19C289.79 601.6 290.47 601.73 291.24 601.98C292.01 602.24 292.75 602.62 293.48 603.13C294.2 603.64 294.8 604.32 295.27 605.17C295.74 606.02 295.97 607 295.97 608.11V622.04H289.19C281.18 622.04 274.21 621 268.29 618.91C262.37 616.82 257.47 613.88 253.59 610.09C249.71 606.3 246.84 601.74 244.96 596.41C243.08 591.08 242.15 585.18 242.15 578.7C242.15 574.53 242.43 570.41 242.98 566.36C243.53 562.31 244.17 558.29 244.9 554.28C245.62 550.28 246.26 546.27 246.82 542.26C247.37 538.26 247.65 534.25 247.65 530.24V530.26Z" fill="currentColor"/>
<path d="M318.59 397.83H346.33C349.31 397.83 351.74 398.55 353.62 400C355.49 401.45 356.9 403.32 357.84 405.62L401.3 518.37C402.75 522.04 404.13 526.06 405.45 530.45C406.77 534.84 408.03 539.46 409.22 544.32C411.18 534.52 413.61 525.87 416.51 518.37L459.84 405.62C460.61 403.66 461.97 401.87 463.93 400.25C465.89 398.63 468.32 397.82 471.22 397.82H498.96L424.31 582.66H393.25L318.6 397.82L318.59 397.83Z" fill="currentColor"/>
<path d="M566.58 475.29H574.63C577.87 475.29 580.55 474.84 582.68 473.95C584.81 473.05 586.64 471.63 588.18 469.67L639.18 405.11C641.31 402.38 643.55 400.49 645.89 399.42C648.23 398.36 651.19 397.82 654.77 397.82H684.43L622.18 474.65C620.22 477.04 618.35 479.04 616.56 480.66C614.77 482.28 612.85 483.6 610.81 484.62C613.62 485.64 616.16 487.09 618.42 488.97C620.68 490.85 622.87 493.23 625 496.13L689.17 582.67H658.75C654.66 582.67 651.61 582.09 649.61 580.94C647.61 579.79 645.92 578.11 644.56 575.89L592.28 507.63C590.57 505.42 588.66 503.82 586.53 502.84C584.4 501.86 581.37 501.37 577.45 501.37H566.58V582.67H532.19V397.7H566.58V475.29Z" fill="currentColor"/>
<path d="M761.27 530.26C761.27 534.27 761.55 538.27 762.1 542.28C762.65 546.29 763.29 550.29 764.02 554.3C764.74 558.31 765.38 562.33 765.94 566.38C766.49 570.43 766.77 574.54 766.77 578.72C766.77 585.2 765.83 591.1 763.96 596.43C762.08 601.76 759.21 606.31 755.33 610.11C751.45 613.9 746.55 616.84 740.63 618.93C734.71 621.02 727.74 622.06 719.73 622.06H712.96V608.13C712.96 607.02 713.19 606.04 713.66 605.19C714.13 604.34 714.72 603.66 715.45 603.15C716.17 602.64 716.92 602.26 717.69 602C718.46 601.74 719.14 601.62 719.73 601.62H720.88C726.84 601.62 731.4 599.74 734.56 596C737.71 592.25 739.29 587.13 739.29 580.66C739.29 575.97 739.03 571.48 738.52 567.17C738.01 562.87 737.48 558.69 736.92 554.64C736.37 550.59 735.83 546.61 735.32 542.69C734.81 538.77 734.55 534.81 734.55 530.8C734.55 527.65 735 524.62 735.89 521.72C736.78 518.82 738.08 516.18 739.79 513.79C741.49 511.41 743.58 509.34 746.05 507.59C748.52 505.84 751.29 504.5 754.36 503.56C751.29 502.71 748.52 501.39 746.05 499.6C743.58 497.81 741.49 495.75 739.79 493.4C738.08 491.06 736.79 488.44 735.89 485.54C735 482.64 734.55 479.58 734.55 476.34C734.55 472.34 734.81 468.37 735.32 464.45C735.83 460.53 736.36 456.55 736.92 452.5C737.47 448.45 738.01 444.28 738.52 439.97C739.03 435.67 739.29 431.17 739.29 426.48C739.29 419.92 737.71 414.76 734.56 411.01C731.41 407.26 726.85 405.39 720.88 405.39H719.73C719.13 405.39 718.45 405.26 717.69 405.01C716.93 404.76 716.18 404.37 715.45 403.86C714.73 403.35 714.13 402.69 713.66 401.88C713.19 401.07 712.96 400.11 712.96 399V384.94H719.73C727.74 384.94 734.71 385.98 740.63 388.07C746.55 390.16 751.45 393.12 755.33 396.95C759.21 400.78 762.08 405.37 763.96 410.69C765.83 416.02 766.77 421.92 766.77 428.4C766.77 432.58 766.49 436.69 765.94 440.74C765.38 444.79 764.75 448.82 764.02 452.82C763.3 456.83 762.66 460.81 762.1 464.77C761.54 468.73 761.27 472.72 761.27 476.72C761.27 481.92 762.48 486.16 764.91 489.44C767.34 492.72 771.24 494.36 776.61 494.36V512.64C771.24 512.64 767.34 514.28 764.91 517.56C762.48 520.84 761.27 525.08 761.27 530.28V530.26Z" fill="currentColor"/>
</g>
<defs>
<clipPath id="clip0_6_69">
<rect width="1000" height="1000" fill="white"/>
</clipPath>
</defs>
</svg>
