<svg width="1000" height="1000" viewBox="0 0 1000 1000" fill="none" xmlns="http://www.w3.org/2000/svg">
<g clip-path="url(#clip0_6_2)">
<path d="M1000 0H0V1000H1000V0Z" fill="white"/>
<path d="M915.38 509.36C915.41 507.22 915.44 505.07 915.44 502.92C915.44 276.47 731.87 92.9 505.42 92.9" stroke="#333333" stroke-width="6" stroke-miterlimit="10"/>
<path d="M505.41 63.8C747.93 63.8 944.53 260.4 944.53 502.92C944.53 505.07 944.51 507.22 944.48 509.36" stroke="#333333" stroke-width="6" stroke-miterlimit="10"/>
<path d="M506.93 942.03C506.42 942.03 505.92 942.03 505.41 942.03C265.04 942.03 69.7801 748.9 66.3401 509.35" stroke="#333333" stroke-width="6" stroke-miterlimit="10"/>
<path d="M95.4501 509.36C98.8901 732.84 281.12 912.94 505.41 912.94C505.92 912.94 506.42 912.94 506.93 912.94" stroke="#333333" stroke-width="6" stroke-miterlimit="10"/>
<path d="M59.24 429.92L64.77 430.65L62.44 448.2L74.63 449.82L76.45 436.14L81.98 436.88L80.16 450.56L98.24 452.96L97.34 459.74L56 454.25L59.23 429.92H59.24Z" fill="#333333"/>
<path d="M70.14 381.09L95.58 388.8C98.61 389.72 101.12 389.61 103.14 388.49C105.15 387.37 106.59 385.39 107.45 382.55C108.32 379.68 108.23 377.22 107.18 375.16C106.13 373.11 104.09 371.62 101.07 370.71L75.63 363L77.61 356.45L102.93 364.12C106.18 365.11 108.72 366.65 110.55 368.75C112.38 370.85 113.49 373.26 113.88 375.97C114.27 378.68 114.03 381.47 113.16 384.34C112.29 387.21 110.95 389.66 109.12 391.67C107.3 393.69 105.05 395.05 102.37 395.74C99.69 396.43 96.73 396.29 93.47 395.3L68.15 387.63L70.13 381.08L70.14 381.09Z" fill="#333333"/>
<path d="M130.33 323.8L136.49 311.12L141.45 313.53L132.31 332.37L94.8 314.16L97.79 308.01L130.34 323.81L130.33 323.8Z" fill="#333333"/>
<path d="M158.87 273.6L166.73 261.89L171.31 264.97L159.63 282.35L125.01 259.1L128.82 253.42L158.86 273.59L158.87 273.6Z" fill="#333333"/>
<path d="M196.88 231.35C194.64 232.34 192.43 232.7 190.24 232.43C188.05 232.16 186.07 231.21 184.3 229.59L189.24 224.19C190.67 225.29 192.25 225.76 193.95 225.62C195.66 225.48 197.28 224.56 198.82 222.88C200.41 221.14 201.24 219.4 201.29 217.65C201.34 215.91 200.7 214.43 199.38 213.21C198.35 212.26 197.23 211.8 196.03 211.81C194.83 211.82 193.64 212.11 192.46 212.69C191.28 213.27 189.76 214.16 187.88 215.37C185.51 216.89 183.48 218.03 181.79 218.78C180.1 219.53 178.27 219.83 176.31 219.66C174.35 219.49 172.41 218.53 170.49 216.77C168.72 215.15 167.58 213.29 167.06 211.19C166.54 209.09 166.66 206.92 167.41 204.68C168.16 202.44 169.5 200.27 171.41 198.18C174.14 195.2 177.12 193.44 180.35 192.9C183.58 192.36 186.59 193.18 189.37 195.35L184.26 200.92C183.06 199.98 181.61 199.63 179.93 199.88C178.24 200.12 176.67 201.04 175.21 202.63C173.88 204.08 173.17 205.59 173.07 207.18C172.97 208.77 173.61 210.2 175 211.47C175.94 212.34 176.98 212.76 178.11 212.74C179.24 212.72 180.39 212.43 181.55 211.87C182.71 211.31 184.21 210.45 186.02 209.3C188.44 207.78 190.52 206.63 192.26 205.86C194 205.09 195.86 204.79 197.85 204.96C199.84 205.13 201.81 206.1 203.75 207.89C205.31 209.32 206.4 211.09 207.02 213.2C207.64 215.31 207.63 217.56 207 219.93C206.37 222.31 205.05 224.59 203.05 226.77C201.16 228.84 199.09 230.36 196.86 231.35H196.88Z" fill="#333333"/>
<path d="M235.79 140.46L239.26 144.83L230.57 151.73L253.03 180.02L247.67 184.27L225.21 155.98L216.47 162.92L213 158.55L235.79 140.45V140.46Z" fill="#333333"/>
<path d="M310.3 132.79L295.03 141.25L296.53 150.16L290.29 153.62L283.12 109.85L290.05 106.01L323.36 135.3L317.06 138.79L310.31 132.79H310.3ZM305.92 128.84L290.6 115.17L294.01 135.44L305.92 128.84Z" fill="#333333"/>
<path d="M347.09 90.16C347.86 86.48 349.49 83.26 352 80.5C354.51 77.74 357.6 75.73 361.28 74.5C365.49 73.08 369.58 72.86 373.55 73.82C377.52 74.78 380.89 76.91 383.64 80.2L375.85 82.82C374.12 81.08 372.18 80 370.01 79.59C367.85 79.18 365.57 79.38 363.18 80.18C360.56 81.06 358.43 82.43 356.78 84.3C355.13 86.17 354.1 88.39 353.68 90.98C353.26 93.57 353.55 96.32 354.53 99.24C355.51 102.16 356.95 104.52 358.85 106.33C360.75 108.14 362.92 109.3 365.37 109.8C367.82 110.3 370.35 110.12 372.97 109.24C375.36 108.44 377.29 107.22 378.76 105.58C380.23 103.94 381.13 101.91 381.46 99.48L389.25 96.86C389.05 101.15 387.65 104.87 385.06 108.02C382.47 111.17 379.07 113.45 374.86 114.87C371.14 116.12 367.46 116.4 363.81 115.71C360.16 115.02 356.91 113.44 354.08 110.98C351.25 108.52 349.18 105.35 347.88 101.48C346.58 97.61 346.31 93.84 347.08 90.16H347.09Z" fill="#333333"/>
<path d="M452.91 96.52L434.2 80.43L436.94 98.89L430.17 99.89L424.04 58.64L430.8 57.64L433.59 76.45L446.82 55.26L455.31 54L440.45 77.32L461.73 95.21L452.89 96.52H452.91Z" fill="#333333"/>
<path d="M581.54 904.5C585.04 905.85 587.85 908.02 589.98 911C592.11 913.98 593.39 917.58 593.82 921.8C594.25 926.02 593.72 929.77 592.22 933.06C590.72 936.35 588.4 938.99 585.25 940.98C582.09 942.97 578.31 944.19 573.89 944.64L560.34 946.02L556.12 904.53L569.67 903.15C574.09 902.7 578.04 903.15 581.54 904.51V904.5ZM584.09 934C586.41 931.11 587.33 927.28 586.84 922.5C586.35 917.69 584.67 914.06 581.81 911.61C578.95 909.17 575.09 908.19 570.23 908.69L563.49 909.38L566.58 939.76L573.32 939.07C578.18 938.58 581.76 936.88 584.08 933.99L584.09 934Z" fill="#333333"/>
<path d="M633.08 897.31L636.42 909.09L650.27 905.17L651.79 910.54L637.93 914.46L641.41 926.76L657 922.34L658.52 927.71L636.35 933.99L624.97 893.81L647.14 887.53L648.66 892.9L633.07 897.32L633.08 897.31Z" fill="#333333"/>
<path d="M712.98 859.63L717.04 903.99L709.91 907.44L677.6 876.75L684.19 873.56L710.42 899.4L706.5 862.77L712.98 859.63Z" fill="#333333"/>
<path d="M749.73 842.59L756.88 852.52L768.57 844.1L771.83 848.63L760.14 857.04L767.61 867.41L780.76 857.94L784.02 862.47L765.32 875.93L740.92 842.04L759.62 828.58L762.88 833.11L749.73 842.58V842.59Z" fill="#333333"/>
<path d="M817.22 826.3L827.27 816.41L831.14 820.35L816.21 835.03L786.97 805.3L791.85 800.5L817.22 826.3Z" fill="#333333"/>
<path d="M860.68 782.07C857.3 783.66 853.74 784.28 849.98 783.93C846.22 783.58 842.69 782.22 839.37 779.84C836.05 777.47 833.63 774.56 832.1 771.13C830.57 767.7 830.01 764.13 830.43 760.42C830.85 756.71 832.18 753.28 834.44 750.12C836.72 746.93 839.55 744.54 842.93 742.95C846.31 741.36 849.86 740.74 853.59 741.09C857.32 741.45 860.84 742.81 864.16 745.18C867.48 747.55 869.92 750.45 871.47 753.88C873.03 757.31 873.6 760.87 873.18 764.59C872.76 768.31 871.42 771.75 869.14 774.94C866.88 778.1 864.07 780.47 860.69 782.06L860.68 782.07ZM867.06 764.39C867.29 761.9 866.81 759.48 865.62 757.12C864.43 754.77 862.58 752.69 860.07 750.9C857.57 749.11 855.01 748.03 852.42 747.68C849.82 747.32 847.39 747.66 845.13 748.7C842.86 749.74 840.93 751.37 839.32 753.62C837.71 755.87 836.79 758.23 836.54 760.7C836.29 763.18 836.76 765.59 837.93 767.93C839.11 770.27 840.95 772.34 843.45 774.13C845.96 775.92 848.51 777 851.13 777.37C853.74 777.74 856.19 777.41 858.47 776.39C860.75 775.37 862.7 773.73 864.3 771.49C865.91 769.25 866.82 766.88 867.06 764.39Z" fill="#333333"/>
<path d="M892.04 686.23C893.32 687.93 894.04 690.03 894.18 692.52C894.32 695.01 893.67 697.82 892.22 700.94L889.03 707.8L904.37 714.93L901.49 721.13L863.68 703.55L869.75 690.49C871.1 687.59 872.74 685.36 874.67 683.81C876.6 682.26 878.65 681.38 880.82 681.18C882.99 680.98 885.13 681.36 887.23 682.34C889.15 683.23 890.75 684.53 892.04 686.23ZM888.01 692.56C887.48 690.9 886.23 689.62 884.28 688.71C880.14 686.79 876.99 688.17 874.81 692.84L871.62 699.7L883.97 705.44L887.16 698.58C888.26 696.22 888.54 694.21 888.01 692.56Z" fill="#333333"/>
<path d="M894.44 640.01L906.24 643.26L910.06 629.38L915.44 630.86L911.62 644.74L923.94 648.13L928.24 632.51L933.62 633.99L927.51 656.2L887.25 645.12L893.37 622.91L898.75 624.39L894.45 640.01H894.44Z" fill="#333333"/>
<path d="M943.8 570.41L926.25 578.31L925.73 583.5L942.33 585.15L941.65 591.96L900.16 587.83L901.59 573.5C901.91 570.32 902.73 567.67 904.07 565.58C905.4 563.48 907.06 561.98 909.04 561.07C911.02 560.16 913.16 559.82 915.47 560.05C918.18 560.32 920.56 561.35 922.61 563.14C924.66 564.93 925.92 567.5 926.4 570.84L944.62 562.28L943.81 570.4L943.8 570.41ZM920.3 582.96L921.05 575.44C921.3 572.89 920.86 570.91 919.71 569.49C918.56 568.07 916.92 567.25 914.77 567.04C912.62 566.83 910.88 567.3 909.53 568.45C908.19 569.6 907.39 571.47 907.13 574.06L906.38 581.58L920.29 582.96H920.3Z" fill="#333333"/>
<path d="M248.68 530.13C248.68 524.93 247.47 520.69 245.04 517.41C242.61 514.13 238.71 512.49 233.34 512.49V494.21C238.71 494.21 242.61 492.57 245.04 489.29C247.47 486.01 248.68 481.77 248.68 476.57C248.68 472.57 248.4 468.58 247.85 464.62C247.3 460.66 246.66 456.67 245.93 452.67C245.2 448.67 244.57 444.64 244.01 440.59C243.46 436.54 243.18 432.43 243.18 428.25C243.18 421.77 244.12 415.87 245.99 410.55C247.86 405.22 250.74 400.64 254.62 396.81C258.5 392.98 263.4 390.02 269.32 387.93C275.24 385.84 282.21 384.8 290.22 384.8H297V398.86C297 399.97 296.76 400.93 296.3 401.74C295.83 402.55 295.23 403.21 294.51 403.72C293.78 404.23 293.04 404.62 292.27 404.87C291.5 405.12 290.82 405.25 290.22 405.25H289.07C283.1 405.25 278.54 407.13 275.39 410.87C272.24 414.62 270.66 419.78 270.66 426.34C270.66 431.03 270.92 435.52 271.43 439.83C271.94 444.13 272.47 448.31 273.03 452.36C273.58 456.41 274.12 460.39 274.63 464.31C275.14 468.23 275.4 472.19 275.4 476.2C275.4 479.44 274.95 482.51 274.06 485.4C273.16 488.3 271.84 490.92 270.1 493.26C268.35 495.61 266.27 497.67 263.84 499.46C261.41 501.25 258.66 502.57 255.59 503.42C258.66 504.36 261.41 505.7 263.84 507.45C266.27 509.2 268.36 511.27 270.1 513.65C271.85 516.04 273.17 518.68 274.06 521.58C274.95 524.48 275.4 527.5 275.4 530.66C275.4 534.67 275.14 538.63 274.63 542.55C274.12 546.47 273.59 550.46 273.03 554.5C272.48 558.55 271.94 562.73 271.43 567.03C270.92 571.33 270.66 575.83 270.66 580.52C270.66 586.99 272.24 592.11 275.39 595.86C278.54 599.61 283.1 601.48 289.07 601.48H290.22C290.82 601.48 291.5 601.61 292.27 601.86C293.04 602.12 293.78 602.5 294.51 603.01C295.23 603.52 295.83 604.2 296.3 605.05C296.77 605.9 297 606.88 297 607.99V621.92H290.22C282.21 621.92 275.24 620.88 269.32 618.79C263.4 616.7 258.5 613.76 254.62 609.97C250.74 606.18 247.87 601.62 245.99 596.29C244.11 590.96 243.18 585.06 243.18 578.58C243.18 574.41 243.46 570.29 244.01 566.24C244.56 562.19 245.2 558.17 245.93 554.16C246.65 550.16 247.29 546.15 247.85 542.14C248.4 538.14 248.68 534.13 248.68 530.12V530.13Z" fill="#333333"/>
<path d="M319.63 397.69H347.37C350.35 397.69 352.78 398.42 354.66 399.86C356.53 401.31 357.94 403.18 358.88 405.48L402.34 518.23C403.79 521.9 405.17 525.92 406.49 530.31C407.81 534.7 409.07 539.32 410.26 544.18C412.22 534.38 414.65 525.73 417.55 518.23L460.88 405.48C461.65 403.52 463.01 401.73 464.97 400.11C466.93 398.49 469.36 397.68 472.26 397.68H500L425.35 582.52H394.29L319.64 397.68L319.63 397.69Z" fill="#333333"/>
<path d="M567.62 475.16H575.67C578.91 475.16 581.59 474.71 583.72 473.82C585.85 472.92 587.68 471.5 589.22 469.54L640.22 404.98C642.35 402.25 644.59 400.36 646.93 399.29C649.27 398.23 652.23 397.69 655.81 397.69H685.47L623.22 474.52C621.26 476.91 619.39 478.91 617.6 480.53C615.81 482.15 613.89 483.47 611.85 484.49C614.66 485.51 617.2 486.96 619.46 488.84C621.72 490.72 623.91 493.1 626.04 496L690.21 582.54H659.79C655.7 582.54 652.65 581.96 650.65 580.81C648.65 579.66 646.96 577.98 645.6 575.76L593.32 507.5C591.61 505.29 589.7 503.69 587.57 502.71C585.44 501.73 582.41 501.24 578.49 501.24H567.62V582.54H533.23V397.57H567.62V475.16Z" fill="#333333"/>
<path d="M762.3 530.13C762.3 534.14 762.58 538.14 763.13 542.15C763.68 546.16 764.32 550.16 765.05 554.17C765.77 558.18 766.41 562.2 766.97 566.25C767.52 570.3 767.8 574.41 767.8 578.59C767.8 585.07 766.86 590.97 764.99 596.3C763.11 601.63 760.24 606.18 756.36 609.98C752.48 613.77 747.58 616.71 741.66 618.8C735.74 620.89 728.77 621.93 720.76 621.93H713.99V608C713.99 606.89 714.22 605.91 714.69 605.06C715.16 604.21 715.75 603.53 716.48 603.02C717.2 602.51 717.95 602.13 718.72 601.87C719.49 601.61 720.17 601.49 720.76 601.49H721.91C727.87 601.49 732.43 599.61 735.59 595.87C738.74 592.12 740.32 587 740.32 580.53C740.32 575.84 740.06 571.35 739.55 567.04C739.04 562.74 738.51 558.56 737.95 554.51C737.4 550.46 736.86 546.48 736.35 542.56C735.84 538.64 735.58 534.68 735.58 530.67C735.58 527.52 736.03 524.49 736.92 521.59C737.81 518.69 739.11 516.05 740.82 513.66C742.52 511.28 744.61 509.21 747.08 507.46C749.55 505.71 752.32 504.37 755.39 503.43C752.32 502.58 749.55 501.26 747.08 499.47C744.61 497.68 742.52 495.62 740.82 493.27C739.11 490.93 737.82 488.31 736.92 485.41C736.03 482.51 735.58 479.45 735.58 476.21C735.58 472.21 735.84 468.24 736.35 464.32C736.86 460.4 737.39 456.42 737.95 452.37C738.5 448.32 739.04 444.15 739.55 439.84C740.06 435.54 740.32 431.04 740.32 426.35C740.32 419.79 738.74 414.63 735.59 410.88C732.44 407.13 727.88 405.26 721.91 405.26H720.76C720.16 405.26 719.48 405.13 718.72 404.88C717.95 404.62 717.21 404.24 716.48 403.73C715.76 403.22 715.16 402.56 714.69 401.75C714.22 400.94 713.99 399.98 713.99 398.87V384.81H720.76C728.77 384.81 735.74 385.85 741.66 387.94C747.58 390.03 752.48 392.99 756.36 396.82C760.24 400.65 763.11 405.24 764.99 410.56C766.86 415.89 767.8 421.79 767.8 428.26C767.8 432.44 767.52 436.55 766.97 440.6C766.41 444.65 765.78 448.68 765.05 452.68C764.33 456.69 763.69 460.67 763.13 464.63C762.57 468.59 762.3 472.58 762.3 476.58C762.3 481.78 763.51 486.02 765.94 489.3C768.37 492.58 772.27 494.22 777.64 494.22V512.5C772.27 512.5 768.37 514.14 765.94 517.42C763.51 520.7 762.3 524.94 762.3 530.14V530.13Z" fill="#333333"/>
</g>
<defs>
<clipPath id="clip0_6_2">
<rect width="1000" height="1000" fill="white"/>
</clipPath>
</defs>
</svg>
