<svg width="56" height="75" viewBox="0 0 230 311" fill="none" xmlns="http://www.w3.org/2000/svg">
<path d="M74.0395 240.336C74.0395 240.336 62.1004 247.603 82.3447 249.679C106.741 252.793 119.719 252.275 146.711 247.084C146.711 247.084 153.978 251.755 163.841 255.389C103.108 281.343 26.2838 253.831 74.0395 240.336ZM66.2531 206.595C66.2531 206.595 53.2762 216.458 73.5203 218.534C99.9938 221.13 120.757 221.648 156.574 214.381C156.574 214.381 161.246 219.572 169.032 222.168C95.841 243.969 13.8251 224.244 66.2531 206.595ZM209.52 265.771C209.52 265.771 218.345 273.038 199.658 278.748C164.879 289.129 53.7945 292.244 22.6495 278.748C11.7489 274.076 32.5123 267.328 39.26 266.29C46.0082 264.733 49.6416 264.733 49.6416 264.733C37.7032 256.427 -29.7779 281.862 15.3821 289.129C139.443 309.374 241.704 280.305 209.52 265.771ZM79.7491 171.298C79.7491 171.298 23.1692 184.794 59.5052 189.465C75.0777 191.541 105.703 191.023 134.253 188.946C157.612 186.87 180.971 182.717 180.971 182.717C180.971 182.717 172.665 186.351 166.955 189.985C109.337 205.038 -1.22774 198.29 30.4363 182.717C57.4286 169.74 79.7491 171.298 79.7491 171.298ZM180.971 227.877C239.108 197.771 212.116 168.702 193.429 172.336C188.757 173.374 186.681 174.412 186.681 174.412C186.681 174.412 188.238 171.298 191.871 170.26C228.727 157.282 257.795 209.19 179.933 229.435C179.933 229.435 180.452 228.916 180.971 227.877ZM85.4594 309.893C141.521 313.527 227.169 307.816 229.245 281.343C229.245 281.343 225.093 291.725 183.047 299.511C135.291 308.336 76.1163 307.297 41.3373 301.587C41.3373 301.587 48.6043 307.816 85.4594 309.893Z" fill="currentColor"/>
<path d="M145.673 0C145.673 0 177.857 32.7022 115.047 82.0153C64.696 121.984 103.627 144.824 115.047 170.778C85.4594 144.305 64.177 120.946 78.7112 99.1447C99.994 66.9615 158.65 51.3892 145.673 0ZM129.063 148.977C144.116 166.107 124.91 181.68 124.91 181.68C124.91 181.68 163.322 161.954 145.673 137.557C129.581 114.199 117.123 102.779 184.604 63.8474C184.604 63.8474 78.1924 90.3208 129.063 148.977Z" fill="currentColor"/>
</svg>
