<svg xmlns="http://www.w3.org/2000/svg" version="1.0" width="1442.000000pt" height="1079.000000pt" viewBox="0 0 1442.000000 1079.000000" preserveAspectRatio="xMidYMid meet">

<g transform="translate(0.000000,1079.000000) scale(0.100000,-0.100000)" fill="#34353a" stroke="none">
<path d="M0 7222 l0 -3558 68 -31 c37 -17 186 -87 332 -156 3109 -1463 7369 -2600 12200 -3256 564 -77 1689 -211 1769 -211 l29 0 6 1848 c3 1016 9 2492 12 3281 l6 1434 -83 -6 c-2408 -190 -3505 -114 -5726 398 -3707 855 -6647 2118 -8353 3589 -63 55 -145 128 -182 163 -36 34 -69 63 -72 63 -3 0 -6 -1601 -6 -3558z" fill="#34353a"/>
</g>
</svg>