<svg xmlns="http://www.w3.org/2000/svg" version="1.0" width="1442.000000pt" height="1079.000000pt" viewBox="0 0 1442.000000 1079.000000" preserveAspectRatio="xMidYMid meet">

<g transform="translate(0.000000,1079.000000) scale(0.100000,-0.100000)" fill="#34353a" stroke="none">
<path d="M14342 10717 c-37 -35 -119 -108 -182 -163 -1706 -1471 -4646 -2734 -8353 -3589 -2221 -512 -3318 -588 -5726 -398 l-83 6 6 -1434 c3 -789 9 -2265 12 -3281 l6 -1848 29 0 c80 0 1205 134 1769 211 4831 656 9091 1793 12200 3256 146 69 295 139 333 156 l67 31 0 3558 c0 1957 -3 3558 -6 3558 -3 0 -36 -29 -72 -63z" fill="#34353a"/>
</g>
</svg>