<svg width="1000" height="1000" viewBox="0 0 1000 1000" fill="none" xmlns="http://www.w3.org/2000/svg">
<g clip-path="url(#clip0_1_138)">
<path d="M1000 0H0V1000H1000V0Z" fill="white"/>
<path d="M915.38 509.36C915.41 507.22 915.44 505.07 915.44 502.92C915.44 276.47 731.87 92.9 505.42 92.9" stroke="#5988FF" stroke-width="6" stroke-miterlimit="10"/>
<path d="M505.41 63.8C747.93 63.8 944.53 260.4 944.53 502.92C944.53 505.07 944.51 507.22 944.48 509.36" stroke="#5988FF" stroke-width="6" stroke-miterlimit="10"/>
<path d="M506.93 942.03C506.42 942.03 505.92 942.03 505.41 942.03C265.04 942.03 69.7798 748.9 66.3398 509.35" stroke="#5988FF" stroke-width="6" stroke-miterlimit="10"/>
<path d="M95.4497 509.36C98.8897 732.84 281.12 912.94 505.41 912.94C505.92 912.94 506.42 912.94 506.93 912.94" stroke="#5988FF" stroke-width="6" stroke-miterlimit="10"/>
<path d="M59.24 429.92L64.77 430.65L62.44 448.2L74.63 449.82L76.45 436.14L81.98 436.88L80.16 450.56L98.24 452.96L97.34 459.74L56 454.25L59.23 429.92H59.24Z" fill="#5988FF"/>
<path d="M70.1399 381.09L95.5799 388.8C98.6099 389.72 101.12 389.61 103.14 388.49C105.15 387.37 106.59 385.39 107.45 382.55C108.32 379.68 108.23 377.22 107.18 375.16C106.13 373.11 104.09 371.62 101.07 370.71L75.6299 363L77.6099 356.45L102.93 364.12C106.18 365.11 108.72 366.65 110.55 368.75C112.38 370.85 113.49 373.26 113.88 375.97C114.27 378.68 114.03 381.47 113.16 384.34C112.29 387.21 110.95 389.66 109.12 391.67C107.3 393.69 105.05 395.05 102.37 395.74C99.6899 396.43 96.7299 396.29 93.4699 395.3L68.1499 387.63L70.1299 381.08L70.1399 381.09Z" fill="#5988FF"/>
<path d="M130.33 323.8L136.49 311.12L141.45 313.53L132.31 332.37L94.7998 314.16L97.7898 308.01L130.34 323.81L130.33 323.8Z" fill="#5988FF"/>
<path d="M158.87 273.6L166.73 261.89L171.31 264.97L159.63 282.35L125.01 259.1L128.82 253.42L158.86 273.59L158.87 273.6Z" fill="#5988FF"/>
<path d="M196.88 231.35C194.64 232.34 192.43 232.7 190.24 232.43C188.05 232.16 186.07 231.21 184.3 229.59L189.24 224.19C190.67 225.29 192.25 225.76 193.95 225.62C195.66 225.48 197.28 224.56 198.82 222.88C200.41 221.14 201.24 219.4 201.29 217.65C201.34 215.91 200.7 214.43 199.38 213.21C198.35 212.26 197.23 211.8 196.03 211.81C194.83 211.82 193.64 212.11 192.46 212.69C191.28 213.27 189.76 214.16 187.88 215.37C185.51 216.89 183.48 218.03 181.79 218.78C180.1 219.53 178.27 219.83 176.31 219.66C174.35 219.49 172.41 218.53 170.49 216.77C168.72 215.15 167.58 213.29 167.06 211.19C166.54 209.09 166.66 206.92 167.41 204.68C168.16 202.44 169.5 200.27 171.41 198.18C174.14 195.2 177.12 193.44 180.35 192.9C183.58 192.36 186.59 193.18 189.37 195.35L184.26 200.92C183.06 199.98 181.61 199.63 179.93 199.88C178.24 200.12 176.67 201.04 175.21 202.63C173.88 204.08 173.17 205.59 173.07 207.18C172.97 208.77 173.61 210.2 175 211.47C175.94 212.34 176.98 212.76 178.11 212.74C179.24 212.72 180.39 212.43 181.55 211.87C182.71 211.31 184.21 210.45 186.02 209.3C188.44 207.78 190.52 206.63 192.26 205.86C194 205.09 195.86 204.79 197.85 204.96C199.84 205.13 201.81 206.1 203.75 207.89C205.31 209.32 206.4 211.09 207.02 213.2C207.64 215.31 207.63 217.56 207 219.93C206.37 222.31 205.05 224.59 203.05 226.77C201.16 228.84 199.09 230.36 196.86 231.35H196.88Z" fill="#5988FF"/>
<path d="M235.79 140.46L239.26 144.83L230.57 151.73L253.03 180.02L247.67 184.27L225.21 155.98L216.47 162.92L213 158.55L235.79 140.45V140.46Z" fill="#5988FF"/>
<path d="M310.3 132.79L295.03 141.25L296.53 150.16L290.29 153.62L283.12 109.85L290.05 106.01L323.36 135.3L317.06 138.79L310.31 132.79H310.3ZM305.92 128.84L290.6 115.17L294.01 135.44L305.92 128.84Z" fill="#5988FF"/>
<path d="M347.09 90.16C347.86 86.48 349.49 83.26 352 80.5C354.51 77.74 357.6 75.73 361.28 74.5C365.49 73.08 369.58 72.86 373.55 73.82C377.52 74.78 380.89 76.91 383.64 80.2L375.85 82.82C374.12 81.08 372.18 80 370.01 79.59C367.85 79.18 365.57 79.38 363.18 80.18C360.56 81.06 358.43 82.43 356.78 84.3C355.13 86.17 354.1 88.39 353.68 90.98C353.26 93.57 353.55 96.32 354.53 99.24C355.51 102.16 356.95 104.52 358.85 106.33C360.75 108.14 362.92 109.3 365.37 109.8C367.82 110.3 370.35 110.12 372.97 109.24C375.36 108.44 377.29 107.22 378.76 105.58C380.23 103.94 381.13 101.91 381.46 99.48L389.25 96.86C389.05 101.15 387.65 104.87 385.06 108.02C382.47 111.17 379.07 113.45 374.86 114.87C371.14 116.12 367.46 116.4 363.81 115.71C360.16 115.02 356.91 113.44 354.08 110.98C351.25 108.52 349.18 105.35 347.88 101.48C346.58 97.61 346.31 93.84 347.08 90.16H347.09Z" fill="#5988FF"/>
<path d="M452.91 96.52L434.2 80.43L436.94 98.89L430.17 99.89L424.04 58.64L430.8 57.64L433.59 76.45L446.82 55.26L455.31 54L440.45 77.32L461.73 95.21L452.89 96.52H452.91Z" fill="#5988FF"/>
<path d="M581.54 904.5C585.04 905.85 587.85 908.02 589.98 911C592.11 913.98 593.39 917.58 593.82 921.8C594.25 926.02 593.72 929.77 592.22 933.06C590.72 936.35 588.4 938.99 585.25 940.98C582.09 942.97 578.31 944.19 573.89 944.64L560.34 946.02L556.12 904.53L569.67 903.15C574.09 902.7 578.04 903.15 581.54 904.51V904.5ZM584.09 934C586.41 931.11 587.33 927.28 586.84 922.5C586.35 917.69 584.67 914.06 581.81 911.61C578.95 909.17 575.09 908.19 570.23 908.69L563.49 909.38L566.58 939.76L573.32 939.07C578.18 938.58 581.76 936.88 584.08 933.99L584.09 934Z" fill="#5988FF"/>
<path d="M633.08 897.31L636.42 909.09L650.27 905.17L651.79 910.54L637.93 914.46L641.41 926.76L657 922.34L658.52 927.71L636.35 933.99L624.97 893.81L647.14 887.53L648.66 892.9L633.07 897.32L633.08 897.31Z" fill="#5988FF"/>
<path d="M712.98 859.63L717.04 903.99L709.91 907.44L677.6 876.75L684.19 873.56L710.42 899.4L706.5 862.77L712.98 859.63Z" fill="#5988FF"/>
<path d="M749.73 842.59L756.88 852.52L768.57 844.1L771.83 848.63L760.14 857.04L767.61 867.41L780.76 857.94L784.02 862.47L765.32 875.93L740.92 842.04L759.62 828.58L762.88 833.11L749.73 842.58V842.59Z" fill="#5988FF"/>
<path d="M817.22 826.3L827.27 816.41L831.14 820.35L816.21 835.03L786.97 805.3L791.85 800.5L817.22 826.3Z" fill="#5988FF"/>
<path d="M860.68 782.07C857.3 783.66 853.74 784.28 849.98 783.93C846.22 783.58 842.69 782.22 839.37 779.84C836.05 777.47 833.63 774.56 832.1 771.13C830.57 767.7 830.01 764.13 830.43 760.42C830.85 756.71 832.18 753.28 834.44 750.12C836.72 746.93 839.55 744.54 842.93 742.95C846.31 741.36 849.86 740.74 853.59 741.09C857.32 741.45 860.84 742.81 864.16 745.18C867.48 747.55 869.92 750.45 871.47 753.88C873.03 757.31 873.6 760.87 873.18 764.59C872.76 768.31 871.42 771.75 869.14 774.94C866.88 778.1 864.07 780.47 860.69 782.06L860.68 782.07ZM867.06 764.39C867.29 761.9 866.81 759.48 865.62 757.12C864.43 754.77 862.58 752.69 860.07 750.9C857.57 749.11 855.01 748.03 852.42 747.68C849.82 747.32 847.39 747.66 845.13 748.7C842.86 749.74 840.93 751.37 839.32 753.62C837.71 755.87 836.79 758.23 836.54 760.7C836.29 763.18 836.76 765.59 837.93 767.93C839.11 770.27 840.95 772.34 843.45 774.13C845.96 775.92 848.51 777 851.13 777.37C853.74 777.74 856.19 777.41 858.47 776.39C860.75 775.37 862.7 773.73 864.3 771.49C865.91 769.25 866.82 766.88 867.06 764.39Z" fill="#5988FF"/>
<path d="M892.04 686.23C893.32 687.93 894.04 690.03 894.18 692.52C894.32 695.01 893.67 697.82 892.22 700.94L889.03 707.8L904.37 714.93L901.49 721.13L863.68 703.55L869.75 690.49C871.1 687.59 872.74 685.36 874.67 683.81C876.6 682.26 878.65 681.38 880.82 681.18C882.99 680.98 885.13 681.36 887.23 682.34C889.15 683.23 890.75 684.53 892.04 686.23ZM888.01 692.56C887.48 690.9 886.23 689.62 884.28 688.71C880.14 686.79 876.99 688.17 874.81 692.84L871.62 699.7L883.97 705.44L887.16 698.58C888.26 696.22 888.54 694.21 888.01 692.56Z" fill="#5988FF"/>
<path d="M894.44 640.01L906.24 643.26L910.06 629.38L915.44 630.86L911.62 644.74L923.94 648.13L928.24 632.51L933.62 633.99L927.51 656.2L887.25 645.12L893.37 622.91L898.75 624.39L894.45 640.01H894.44Z" fill="#5988FF"/>
<path d="M943.8 570.41L926.25 578.31L925.73 583.5L942.33 585.15L941.65 591.96L900.16 587.83L901.59 573.5C901.91 570.32 902.73 567.67 904.07 565.58C905.4 563.48 907.06 561.98 909.04 561.07C911.02 560.16 913.16 559.82 915.47 560.05C918.18 560.32 920.56 561.35 922.61 563.14C924.66 564.93 925.92 567.5 926.4 570.84L944.62 562.28L943.81 570.4L943.8 570.41ZM920.3 582.96L921.05 575.44C921.3 572.89 920.86 570.91 919.71 569.49C918.56 568.07 916.92 567.25 914.77 567.04C912.62 566.83 910.88 567.3 909.53 568.45C908.19 569.6 907.39 571.47 907.13 574.06L906.38 581.58L920.29 582.96H920.3Z" fill="#5988FF"/>
<path d="M220.34 499.29L295.26 460.07V479.96C295.26 481.38 294.89 482.69 294.15 483.89C293.41 485.09 292.24 486.13 290.64 486.99L264.37 501.14C262.77 502 261.07 502.73 259.28 503.31C257.49 503.9 255.61 504.44 253.64 504.93C255.61 505.42 257.49 505.93 259.28 506.46C261.07 506.98 262.76 507.68 264.37 508.54L290.64 522.79C292.24 523.65 293.41 524.67 294.15 525.84C294.89 527.01 295.26 528.31 295.26 529.73V549.62L220.34 510.49V499.3V499.29Z" fill="#5988FF"/>
<path d="M324.86 432.51H350.02C352.73 432.51 354.95 433.13 356.68 434.36C358.41 435.59 359.64 437.23 360.38 439.26L386.47 511.41C387.64 514.56 388.83 517.98 390.03 521.68C391.23 525.38 392.36 529.26 393.41 533.34C394.27 529.27 395.27 525.38 396.42 521.68C397.56 517.98 398.69 514.56 399.8 511.41L425.7 439.26C426.32 437.54 427.52 435.98 429.31 434.59C431.1 433.2 433.29 432.51 435.88 432.51H461.22L407.2 567.28H378.89L324.87 432.51H324.86Z" fill="#5988FF"/>
<path d="M512.82 487.08H517.82C522.44 487.08 525.78 485.63 527.81 482.73L558.15 438.7C559.82 436.3 561.71 434.66 563.84 433.8C565.97 432.94 568.57 432.51 571.66 432.51H598.85L558.89 486.99C557.47 488.96 555.99 490.6 554.45 491.89C552.91 493.18 551.33 494.27 549.73 495.13C552.07 495.99 554.22 497.18 556.16 498.69C558.1 500.2 559.87 502.22 561.48 504.75L602.18 567.28H574.25C572.46 567.28 570.93 567.16 569.67 566.91C568.41 566.66 567.31 566.29 566.39 565.8C565.46 565.31 564.66 564.71 563.98 564C563.3 563.29 562.65 562.47 562.04 561.55L531.51 514.65C530.4 512.92 529 511.71 527.3 511C525.6 510.29 523.31 509.94 520.41 509.94H512.83V567.29H481.56V432.52H512.83V487.1L512.82 487.08Z" fill="#5988FF"/>
<path d="M636.77 566.17C636.09 567.84 635.21 569.32 634.13 570.61C633.05 571.9 631.85 572.98 630.52 573.85C629.19 574.71 627.77 575.36 626.27 575.79C624.76 576.22 623.26 576.44 621.78 576.44H609.57L662.11 438.52C663.34 435.37 665.22 432.97 667.75 431.3C670.28 429.64 673.21 428.8 676.54 428.8H688.75L636.76 566.16L636.77 566.17Z" fill="#5988FF"/>
<path d="M790.32 510.48L715.39 549.61V529.72C715.39 528.3 715.76 527.01 716.5 525.83C717.24 524.66 718.41 523.64 720.01 522.78L746.28 508.53C747.82 507.67 749.5 506.97 751.32 506.45C753.14 505.93 755.03 505.42 757.01 504.92C755.04 504.43 753.14 503.89 751.32 503.3C749.5 502.72 747.82 501.99 746.28 501.13L720.01 486.98C718.41 486.12 717.24 485.08 716.5 483.88C715.76 482.68 715.39 481.37 715.39 479.95V460.06L790.32 499.28V510.47V510.48Z" fill="#5988FF"/>
</g>
<defs>
<clipPath id="clip0_1_138">
<rect width="1000" height="1000" fill="white"/>
</clipPath>
</defs>
</svg>
