<svg class="v2" width="1000" height="1000" viewBox="0 0 1000 1000" fill="none" xmlns="http://www.w3.org/2000/svg">
<g clip-path="url(#clip0_4_2)">
<path d="M1000 0H0V1000H1000V0Z" fill="none"/>
<path d="M915.34 509.48C915.37 507.34 915.4 505.19 915.4 503.04C915.4 276.59 731.83 93.02 505.38 93.02" stroke="currentColor" stroke-width="6" stroke-miterlimit="10"/>
<path d="M505.38 63.92C747.9 63.92 944.5 260.52 944.5 503.04C944.5 505.19 944.48 507.34 944.45 509.48" stroke="currentColor" stroke-width="6" stroke-miterlimit="10"/>
<path d="M506.9 942.15C506.39 942.15 505.89 942.15 505.38 942.15C265.01 942.15 69.7501 749.02 66.3101 509.47" stroke="currentColor" stroke-width="6" stroke-miterlimit="10"/>
<path d="M95.41 509.48C98.85 732.96 281.08 913.06 505.37 913.06C505.88 913.06 506.38 913.06 506.89 913.06" stroke="currentColor" stroke-width="6" stroke-miterlimit="10"/>
<path d="M59.24 429.91L64.77 430.64L62.44 448.19L74.63 449.81L76.45 436.13L81.98 436.87L80.16 450.55L98.24 452.95L97.34 459.73L56 454.24L59.23 429.91H59.24Z" fill="currentColor"/>
<path d="M70.14 381.09L95.58 388.8C98.6 389.72 101.12 389.61 103.14 388.49C105.15 387.37 106.59 385.39 107.44 382.55C108.31 379.68 108.22 377.22 107.17 375.16C106.12 373.11 104.08 371.62 101.06 370.71L75.62 363L77.6 356.45L102.92 364.12C106.17 365.11 108.72 366.65 110.55 368.75C112.38 370.85 113.49 373.26 113.88 375.97C114.27 378.68 114.03 381.47 113.16 384.34C112.29 387.21 110.94 389.66 109.12 391.67C107.3 393.69 105.05 395.05 102.37 395.74C99.69 396.43 96.73 396.29 93.47 395.3L68.15 387.63L70.13 381.08L70.14 381.09Z" fill="currentColor"/>
<path d="M130.33 323.79L136.49 311.11L141.46 313.52L132.32 332.36L94.8101 314.15L97.8001 308L130.35 323.8L130.33 323.79Z" fill="currentColor"/>
<path d="M158.86 273.6L166.72 261.89L171.3 264.97L159.62 282.35L125 259.1L128.81 253.42L158.84 273.59L158.86 273.6Z" fill="currentColor"/>
<path d="M196.88 231.34C194.64 232.33 192.43 232.69 190.24 232.42C188.05 232.15 186.07 231.2 184.3 229.58L189.24 224.18C190.67 225.28 192.25 225.75 193.95 225.61C195.66 225.47 197.28 224.55 198.82 222.87C200.41 221.13 201.24 219.39 201.29 217.64C201.34 215.9 200.7 214.42 199.37 213.2C198.34 212.25 197.22 211.79 196.02 211.8C194.82 211.81 193.63 212.1 192.45 212.68C191.27 213.26 189.75 214.15 187.88 215.36C185.51 216.88 183.48 218.02 181.79 218.77C180.1 219.52 178.27 219.82 176.31 219.65C174.35 219.48 172.41 218.52 170.49 216.76C168.72 215.14 167.58 213.28 167.06 211.18C166.54 209.08 166.66 206.91 167.41 204.67C168.16 202.43 169.49 200.26 171.41 198.17C174.14 195.19 177.12 193.43 180.35 192.89C183.58 192.35 186.59 193.17 189.37 195.34L184.26 200.91C183.06 199.97 181.61 199.62 179.93 199.87C178.24 200.11 176.67 201.03 175.21 202.62C173.89 204.07 173.17 205.58 173.07 207.17C172.97 208.76 173.61 210.19 175 211.46C175.94 212.33 176.98 212.75 178.11 212.73C179.24 212.71 180.39 212.42 181.55 211.86C182.71 211.3 184.21 210.44 186.02 209.29C188.44 207.77 190.52 206.62 192.26 205.85C194 205.08 195.86 204.78 197.85 204.95C199.84 205.12 201.81 206.09 203.75 207.88C205.31 209.31 206.4 211.08 207.02 213.19C207.64 215.3 207.63 217.55 207 219.92C206.37 222.3 205.05 224.58 203.05 226.76C201.16 228.83 199.1 230.35 196.86 231.34H196.88Z" fill="currentColor"/>
<path d="M235.78 140.46L239.25 144.83L230.56 151.73L253.02 180.02L247.66 184.27L225.2 155.98L216.46 162.92L212.99 158.55L235.78 140.45V140.46Z" fill="currentColor"/>
<path d="M310.29 132.78L295.02 141.24L296.52 150.15L290.27 153.61L283.1 109.84L290.03 106L323.34 135.29L317.04 138.78L310.29 132.78ZM305.91 128.83L290.59 115.16L294 135.43L305.91 128.83Z" fill="currentColor"/>
<path d="M347.08 90.15C347.85 86.47 349.48 83.25 351.99 80.49C354.5 77.73 357.59 75.72 361.27 74.49C365.48 73.07 369.57 72.85 373.54 73.81C377.51 74.77 380.88 76.9 383.63 80.19L375.84 82.81C374.11 81.07 372.17 79.99 370.01 79.58C367.85 79.17 365.57 79.37 363.18 80.17C360.56 81.05 358.43 82.42 356.78 84.29C355.13 86.15 354.1 88.38 353.68 90.97C353.26 93.56 353.55 96.31 354.53 99.23C355.51 102.15 356.95 104.51 358.85 106.32C360.75 108.13 362.92 109.29 365.37 109.79C367.82 110.29 370.35 110.11 372.97 109.23C375.36 108.43 377.29 107.21 378.77 105.57C380.24 103.93 381.14 101.9 381.46 99.47L389.25 96.85C389.05 101.14 387.65 104.86 385.06 108.01C382.47 111.16 379.07 113.44 374.86 114.86C371.14 116.11 367.46 116.39 363.81 115.7C360.16 115.01 356.92 113.43 354.08 110.97C351.25 108.51 349.18 105.34 347.87 101.47C346.57 97.6 346.3 93.83 347.07 90.15H347.08Z" fill="currentColor"/>
<path d="M452.91 96.52L434.2 80.43L436.94 98.89L430.17 99.89L424.04 58.64L430.81 57.64L433.6 76.45L446.83 55.26L455.32 54L440.46 77.32L461.74 95.21L452.9 96.52H452.91Z" fill="currentColor"/>
<path d="M581.54 904.49C585.04 905.84 587.85 908.01 589.98 910.99C592.11 913.97 593.39 917.57 593.82 921.79C594.25 926.01 593.72 929.76 592.22 933.05C590.72 936.34 588.4 938.98 585.25 940.97C582.09 942.96 578.31 944.18 573.89 944.63L560.34 946.01L556.12 904.52L569.67 903.14C574.09 902.69 578.04 903.14 581.54 904.5V904.49ZM584.09 933.99C586.41 931.1 587.33 927.27 586.84 922.49C586.35 917.68 584.67 914.05 581.81 911.6C578.95 909.16 575.09 908.18 570.23 908.68L563.49 909.37L566.58 939.75L573.32 939.06C578.18 938.57 581.76 936.87 584.08 933.98L584.09 933.99Z" fill="currentColor"/>
<path d="M633.08 897.31L636.42 909.09L650.27 905.17L651.79 910.54L637.93 914.46L641.41 926.76L657 922.34L658.52 927.71L636.35 933.99L624.97 893.81L647.14 887.53L648.66 892.9L633.07 897.32L633.08 897.31Z" fill="currentColor"/>
<path d="M712.98 859.62L717.04 903.98L709.91 907.43L677.6 876.74L684.19 873.55L710.42 899.39L706.5 862.76L712.98 859.62Z" fill="currentColor"/>
<path d="M749.72 842.59L756.87 852.52L768.56 844.1L771.82 848.63L760.13 857.04L767.6 867.41L780.75 857.94L784.01 862.47L765.31 875.93L740.91 842.04L759.61 828.58L762.87 833.11L749.72 842.58V842.59Z" fill="currentColor"/>
<path d="M817.22 826.29L827.27 816.4L831.14 820.34L816.21 835.02L786.97 805.29L791.85 800.49L817.22 826.29Z" fill="currentColor"/>
<path d="M860.68 782.07C857.3 783.66 853.74 784.28 849.98 783.93C846.22 783.58 842.69 782.22 839.37 779.84C836.05 777.47 833.63 774.56 832.1 771.13C830.57 767.7 830.01 764.13 830.43 760.42C830.85 756.71 832.18 753.28 834.44 750.12C836.72 746.93 839.55 744.54 842.93 742.95C846.31 741.36 849.86 740.74 853.59 741.09C857.32 741.45 860.84 742.81 864.16 745.18C867.48 747.55 869.92 750.45 871.47 753.88C873.03 757.31 873.6 760.87 873.18 764.59C872.76 768.31 871.42 771.75 869.14 774.94C866.88 778.1 864.07 780.47 860.69 782.06L860.68 782.07ZM867.06 764.39C867.29 761.9 866.81 759.48 865.62 757.12C864.43 754.77 862.58 752.69 860.07 750.9C857.57 749.11 855.01 748.03 852.42 747.68C849.82 747.32 847.39 747.66 845.13 748.7C842.86 749.74 840.93 751.37 839.32 753.62C837.71 755.87 836.79 758.23 836.54 760.7C836.29 763.18 836.76 765.59 837.93 767.93C839.11 770.27 840.95 772.34 843.45 774.13C845.96 775.92 848.51 777 851.13 777.37C853.74 777.74 856.19 777.41 858.47 776.39C860.75 775.37 862.7 773.73 864.3 771.49C865.91 769.25 866.82 766.88 867.06 764.39Z" fill="currentColor"/>
<path d="M892.03 686.22C893.31 687.92 894.03 690.02 894.17 692.51C894.31 695 893.66 697.81 892.21 700.93L889.02 707.79L904.36 714.92L901.48 721.12L863.67 703.54L869.74 690.48C871.09 687.58 872.73 685.35 874.66 683.8C876.59 682.25 878.64 681.37 880.81 681.17C882.98 680.97 885.12 681.35 887.22 682.33C889.14 683.22 890.74 684.52 892.03 686.22ZM888 692.55C887.47 690.89 886.22 689.61 884.27 688.7C880.13 686.78 876.98 688.16 874.8 692.83L871.61 699.69L883.96 705.43L887.15 698.57C888.25 696.21 888.53 694.2 888 692.55Z" fill="currentColor"/>
<path d="M894.43 640L906.23 643.25L910.05 629.37L915.43 630.85L911.61 644.73L923.93 648.12L928.23 632.5L933.61 633.98L927.5 656.19L887.24 645.11L893.36 622.9L898.74 624.38L894.44 640H894.43Z" fill="currentColor"/>
<path d="M943.8 570.4L926.25 578.3L925.73 583.49L942.33 585.14L941.65 591.95L900.16 587.82L901.59 573.49C901.91 570.31 902.73 567.66 904.07 565.57C905.4 563.47 907.06 561.97 909.04 561.06C911.02 560.15 913.16 559.81 915.47 560.04C918.18 560.31 920.56 561.34 922.61 563.13C924.66 564.92 925.92 567.49 926.4 570.83L944.62 562.27L943.81 570.39L943.8 570.4ZM920.3 582.95L921.05 575.43C921.3 572.88 920.86 570.9 919.71 569.48C918.56 568.06 916.92 567.24 914.77 567.03C912.62 566.82 910.88 567.29 909.53 568.44C908.19 569.59 907.39 571.46 907.13 574.05L906.38 581.57L920.29 582.95H920.3Z" fill="currentColor"/>
<path d="M248.65 530.25C248.65 525.05 247.44 520.81 245.01 517.53C242.58 514.25 238.68 512.61 233.31 512.61V494.33C238.68 494.33 242.58 492.69 245.01 489.41C247.44 486.13 248.65 481.89 248.65 476.69C248.65 472.69 248.37 468.7 247.82 464.74C247.27 460.78 246.63 456.79 245.9 452.79C245.17 448.79 244.54 444.76 243.98 440.71C243.43 436.66 243.15 432.55 243.15 428.37C243.15 421.89 244.09 415.99 245.96 410.67C247.83 405.34 250.71 400.76 254.59 396.93C258.47 393.1 263.37 390.14 269.29 388.05C275.21 385.96 282.18 384.92 290.19 384.92H296.97V398.98C296.97 400.09 296.73 401.05 296.27 401.86C295.8 402.67 295.2 403.33 294.48 403.84C293.75 404.35 293.01 404.74 292.24 404.99C291.47 405.25 290.79 405.37 290.19 405.37H289.04C283.07 405.37 278.51 407.25 275.36 410.99C272.21 414.74 270.63 419.9 270.63 426.46C270.63 431.15 270.89 435.64 271.4 439.95C271.91 444.25 272.44 448.43 273 452.48C273.55 456.53 274.09 460.51 274.6 464.43C275.11 468.35 275.37 472.31 275.37 476.32C275.37 479.56 274.92 482.63 274.03 485.52C273.13 488.42 271.81 491.04 270.07 493.38C268.32 495.73 266.24 497.79 263.81 499.58C261.38 501.37 258.63 502.69 255.56 503.54C258.63 504.48 261.38 505.82 263.81 507.57C266.24 509.32 268.33 511.39 270.07 513.77C271.82 516.16 273.14 518.8 274.03 521.7C274.92 524.6 275.37 527.62 275.37 530.78C275.37 534.79 275.11 538.75 274.6 542.67C274.09 546.59 273.56 550.58 273 554.62C272.45 558.67 271.91 562.85 271.4 567.15C270.89 571.45 270.63 575.95 270.63 580.64C270.63 587.11 272.21 592.23 275.36 595.98C278.51 599.73 283.07 601.6 289.04 601.6H290.19C290.79 601.6 291.47 601.73 292.24 601.98C293.01 602.24 293.75 602.62 294.48 603.13C295.2 603.64 295.8 604.32 296.27 605.17C296.74 606.02 296.97 607 296.97 608.11V622.04H290.19C282.18 622.04 275.21 621 269.29 618.91C263.37 616.82 258.47 613.88 254.59 610.09C250.71 606.3 247.84 601.74 245.96 596.41C244.08 591.08 243.15 585.18 243.15 578.7C243.15 574.53 243.43 570.41 243.98 566.36C244.53 562.31 245.17 558.29 245.9 554.28C246.62 550.28 247.26 546.27 247.82 542.26C248.37 538.26 248.65 534.25 248.65 530.24V530.25Z" fill="currentColor"/>
<path d="M319.59 397.82H347.33C350.31 397.82 352.74 398.55 354.62 399.99C356.49 401.44 357.9 403.31 358.84 405.61L402.3 518.36C403.75 522.03 405.13 526.05 406.45 530.44C407.77 534.83 409.03 539.45 410.22 544.31C412.18 534.51 414.61 525.86 417.51 518.36L460.84 405.61C461.61 403.65 462.97 401.86 464.93 400.24C466.89 398.62 469.32 397.81 472.22 397.81H499.96L425.31 582.66H394.25L319.6 397.81L319.59 397.82Z" fill="currentColor"/>
<path d="M567.58 475.28H575.63C578.87 475.28 581.55 474.83 583.68 473.94C585.81 473.04 587.64 471.62 589.18 469.66L640.18 405.1C642.31 402.37 644.55 400.48 646.89 399.41C649.23 398.35 652.19 397.81 655.77 397.81H685.43L623.18 474.64C621.22 477.03 619.35 479.03 617.56 480.65C615.77 482.27 613.85 483.59 611.81 484.61C614.62 485.63 617.16 487.08 619.42 488.96C621.68 490.84 623.87 493.22 626 496.12L690.17 582.66H659.75C655.66 582.66 652.61 582.08 650.61 580.93C648.61 579.78 646.92 578.1 645.56 575.88L593.28 507.62C591.57 505.41 589.66 503.81 587.53 502.83C585.4 501.85 582.37 501.36 578.45 501.36H567.58V582.66H533.19V397.69H567.58V475.28Z" fill="currentColor"/>
<path d="M762.27 530.25C762.27 534.26 762.55 538.26 763.1 542.27C763.65 546.28 764.29 550.28 765.02 554.29C765.74 558.3 766.38 562.32 766.94 566.37C767.49 570.42 767.77 574.53 767.77 578.71C767.77 585.19 766.83 591.09 764.96 596.42C763.08 601.75 760.21 606.3 756.33 610.1C752.45 613.89 747.55 616.83 741.63 618.92C735.71 621.01 728.74 622.05 720.73 622.05H713.96V608.12C713.96 607.01 714.19 606.03 714.66 605.18C715.13 604.33 715.72 603.65 716.45 603.14C717.17 602.63 717.92 602.25 718.69 601.99C719.46 601.73 720.14 601.61 720.73 601.61H721.88C727.84 601.61 732.4 599.73 735.56 595.99C738.71 592.24 740.29 587.12 740.29 580.65C740.29 575.96 740.03 571.47 739.52 567.16C739.01 562.86 738.48 558.68 737.92 554.63C737.37 550.58 736.83 546.6 736.32 542.68C735.81 538.76 735.55 534.8 735.55 530.79C735.55 527.64 736 524.61 736.89 521.71C737.78 518.81 739.08 516.17 740.79 513.78C742.49 511.4 744.58 509.33 747.05 507.58C749.52 505.83 752.29 504.49 755.36 503.55C752.29 502.7 749.52 501.38 747.05 499.59C744.58 497.8 742.49 495.74 740.79 493.39C739.08 491.05 737.79 488.43 736.89 485.53C736 482.63 735.55 479.57 735.55 476.33C735.55 472.33 735.81 468.36 736.32 464.44C736.83 460.52 737.36 456.54 737.92 452.49C738.47 448.44 739.01 444.27 739.52 439.96C740.03 435.66 740.29 431.16 740.29 426.47C740.29 419.91 738.71 414.75 735.56 411C732.41 407.25 727.85 405.38 721.88 405.38H720.73C720.13 405.38 719.45 405.25 718.69 405C717.92 404.74 717.18 404.36 716.45 403.85C715.73 403.34 715.13 402.68 714.66 401.87C714.19 401.06 713.96 400.1 713.96 398.99V384.93H720.73C728.74 384.93 735.71 385.97 741.63 388.06C747.55 390.15 752.45 393.11 756.33 396.94C760.21 400.77 763.08 405.36 764.96 410.68C766.83 416.01 767.77 421.91 767.77 428.38C767.77 432.56 767.49 436.67 766.94 440.72C766.38 444.77 765.75 448.8 765.02 452.8C764.3 456.81 763.66 460.79 763.1 464.75C762.54 468.71 762.27 472.7 762.27 476.7C762.27 481.9 763.48 486.14 765.91 489.42C768.34 492.7 772.24 494.34 777.61 494.34V512.62C772.24 512.62 768.34 514.26 765.91 517.54C763.48 520.82 762.27 525.06 762.27 530.26V530.25Z" fill="currentColor"/>
</g>
<defs>
<clipPath id="clip0_4_2">
<rect width="1000" height="1000" fill="white"/>
</clipPath>
</defs>
</svg>
